<svg width="640" height="440" viewBox="0 0 640 440" fill="none" xmlns="http://www.w3.org/2000/svg">
<path d="M16 2H624C631.732 2 638 8.26801 638 16V424C638 431.732 631.732 438 624 438H16C8.268 438 2 431.732 2 424V16C2 8.26802 8.26802 2 16 2Z" fill="white" stroke="#E6E6E6" stroke-width="4"/>
<path d="M589.222 294.901C587.906 293.326 587.356 291.249 587.719 289.229C588.083 287.209 589.322 285.453 591.104 284.435L586.564 260.212L598.371 265.172L600.872 287.414C602.418 290.591 601.344 294.422 598.372 296.332C595.4 298.242 591.469 297.627 589.222 294.901Z" fill="#FFB6B6"/>
<rect x="42.1638" y="19.2109" width="518.543" height="245.966" fill="#E6E6E6"/>
<rect x="56.9862" y="40.3029" width="488.898" height="205.217" fill="white"/>
<rect x="41.9429" y="5" width="518.543" height="22.021" fill="#FEBE08"/>
<circle cx="58.3072" cy="15.1858" r="4.08152" fill="white"/>
<circle cx="73.7994" cy="15.1858" r="4.08152" fill="white"/>
<circle cx="89.2918" cy="15.1858" r="4.08152" fill="white"/>
<path d="M85.5668 172.722C84.3839 172.722 83.425 173.681 83.425 174.864C83.425 176.046 84.3839 177.005 85.5668 177.005H203.088C204.271 177.005 205.23 176.046 205.23 174.864C205.23 173.681 204.271 172.722 203.088 172.722L85.5668 172.722Z" fill="#E6E6E6"/>
<path d="M85.5668 185.603C84.3839 185.603 83.425 186.562 83.425 187.745C83.425 188.928 84.3839 189.887 85.5668 189.887L145.564 189.887C146.747 189.887 147.706 188.928 147.706 187.745C147.706 186.562 146.747 185.603 145.564 185.603L85.5668 185.603Z" fill="#E6E6E6"/>
<path d="M203.404 209.903H158.761C157.557 209.902 156.581 208.926 156.58 207.722V200.57C156.581 199.366 157.557 198.391 158.761 198.389H203.403C204.607 198.391 205.583 199.366 205.584 200.57L205.584 207.723C205.583 208.926 204.607 209.902 203.404 209.903Z" fill="#FEBE08"/>
<path d="M203.404 135.245H158.761C157.557 135.243 156.581 134.268 156.58 133.064V125.912C156.581 124.708 157.557 123.732 158.761 123.731H203.403C204.607 123.732 205.583 124.708 205.584 125.912L205.584 133.064C205.583 134.268 204.607 135.243 203.404 135.245Z" fill="#FEBE08"/>
<path d="M282.356 76.1936C280.813 76.1936 279.561 77.4448 279.561 78.9882C279.561 80.5316 280.813 81.7828 282.356 81.7828H516.088C517.632 81.7828 518.883 80.5316 518.883 78.9882C518.883 77.4448 517.632 76.1936 516.088 76.1936H282.356Z" fill="#E6E6E6"/>
<path d="M282.291 93.1672C280.747 93.1673 279.496 94.4184 279.496 95.9619C279.496 97.5053 280.747 98.7565 282.291 98.7565H440.963C442.506 98.7565 443.757 97.5053 443.757 95.9619C443.757 94.4184 442.506 93.1673 440.962 93.1673L282.291 93.1672Z" fill="#E6E6E6"/>
<path d="M282.356 109.595C280.813 109.595 279.561 110.846 279.561 112.39C279.561 113.933 280.813 115.184 282.356 115.184L516.088 115.184C517.631 115.184 518.883 113.933 518.883 112.39C518.883 110.846 517.631 109.595 516.088 109.595H282.356Z" fill="#E6E6E6"/>
<path d="M282.291 126.404C280.747 126.404 279.496 127.655 279.496 129.198C279.496 130.742 280.747 131.993 282.291 131.993H440.963C442.506 131.993 443.757 130.742 443.757 129.198C443.757 127.655 442.506 126.404 440.962 126.404H282.291Z" fill="#E6E6E6"/>
<path d="M516.842 162.735H472.2C470.996 162.734 470.02 161.758 470.019 160.554V153.401C470.02 152.197 470.996 151.222 472.2 151.22H516.842C518.046 151.222 519.021 152.197 519.023 153.401L519.023 160.554C519.022 161.758 518.046 162.733 516.842 162.735Z" fill="#FEBE08"/>
<path d="M136.332 79.2206C135.539 79.2231 134.897 80.2531 134.899 81.5212C134.9 82.7857 135.541 83.8102 136.332 83.8127H204.042C204.835 83.8102 205.477 82.7802 205.475 81.5121C205.474 80.2475 204.833 79.2231 204.042 79.2206H136.332Z" fill="#E4E4E4"/>
<path d="M136.332 92.7285C135.539 92.731 134.897 93.761 134.899 95.0291C134.9 96.2937 135.541 97.3182 136.332 97.3207H204.042C204.835 97.3181 205.477 96.2881 205.475 95.02C205.474 93.7555 204.833 92.731 204.042 92.7285H136.332Z" fill="#E4E4E4"/>
<path d="M136.323 105.903C135.53 105.906 134.888 106.936 134.89 108.204C134.891 109.468 135.532 110.493 136.323 110.495H165.459C166.252 110.493 166.894 109.463 166.892 108.195C166.89 106.93 166.25 105.906 165.459 105.903H136.323Z" fill="#E4E4E4"/>
<circle cx="101.804" cy="94.7455" r="18.3737" fill="#E4E4E4"/>
<path d="M482.753 154.122C482.489 156.157 483.141 158.205 484.532 159.713C485.924 161.222 487.912 162.037 489.962 161.939L499.145 184.809L506.439 174.282L496.601 154.178C496.199 150.668 493.235 148.013 489.702 147.999C486.169 147.984 483.183 150.615 482.753 154.122Z" fill="#FFB6B6"/>
<path d="M586.446 429.812H577.992L573.969 397.2L586.448 397.2L586.446 429.812Z" fill="#FFB6B6"/>
<path d="M588.603 438.008L561.34 438.007V437.662C561.34 431.803 566.09 427.052 571.951 427.051H571.952L588.603 427.052L588.603 438.008Z" fill="#2F2E41"/>
<path d="M558.779 429.544L550.718 426.991L556.726 394.686L568.622 398.453L558.779 429.544Z" fill="#FFB6B6"/>
<path d="M558.282 438.008L532.291 429.78L532.395 429.451C534.164 423.864 540.127 420.769 545.714 422.537L561.589 427.563L558.282 438.008Z" fill="#2F2E41"/>
<path d="M548.765 270.422C548.765 270.422 536.22 290.12 540.653 307.701C545.085 325.282 549.913 359.075 549.913 359.075L573.949 416.277L591.866 415.546L574.073 348.103L574.777 303.009C574.777 303.009 587.144 281.458 584.735 274.749C582.327 268.04 548.765 270.422 548.765 270.422Z" fill="#2F2E41"/>
<path d="M589.749 277.465C589.749 277.465 591.293 297.006 586.465 305.282C581.638 313.558 576.494 345.057 576.494 345.057L568.289 408.054L551.293 402.523L565.785 331.942L577.176 276.422L589.749 277.465Z" fill="#2F2E41"/>
<path d="M595.775 182.389L582.515 173.275L562.335 172.688L555.308 179.578L544.583 185.054L543.59 274.271C543.59 274.271 575.704 289.664 592.981 282.233L601.292 212.734C604.741 198.941 595.775 182.389 595.775 182.389Z" fill="#3F3D56"/>
<path d="M547.191 208.782H511.82L488.581 168.781L503.692 162.795L516.489 185.559L535.011 183.883L546.576 183.324C550.328 183.142 553.968 184.626 556.524 187.378C559.08 190.13 560.291 193.87 559.833 197.597C559.043 203.98 553.623 208.776 547.191 208.782Z" fill="#3F3D56"/>
<circle cx="574.07" cy="147.639" r="17.4966" fill="#FFB6B6"/>
<path d="M595.152 143.649C594.615 139.808 592.013 136.161 588.314 134.997C586.844 130.729 582.951 127.587 578.65 126.217C570.458 123.605 561.535 126.859 556.948 134.132C556.619 134.65 555.607 135.921 555.635 136.539C555.671 137.323 556.871 138.133 557.474 138.627C558.968 139.782 560.579 140.777 562.281 141.594C568.573 144.856 566.478 149.982 566.393 155.791C566.352 158.614 567.294 161.024 569.701 162.637C573.175 164.964 578.146 164.038 581.926 163.104C586.215 162.044 589.781 158.277 592.227 154.644C594.394 151.426 595.689 147.49 595.152 143.649Z" fill="#2F2E41"/>
<path d="M595.274 205.204L602.082 279.883L580.208 278.709L595.274 205.204Z" fill="#3F3D56"/>
<path d="M57.9925 431.813H64.5504L67.6704 406.517H57.9911L57.9925 431.813Z" fill="#9E616A"/>
<path d="M56.3198 429.672L69.235 429.671C73.7801 429.671 77.4657 433.356 77.4663 437.901L77.4663 438.169L56.3199 438.17L56.3198 429.672Z" fill="#2F2E41"/>
<path d="M118.476 431.813H125.034L128.154 406.517H118.475L118.476 431.813Z" fill="#9E616A"/>
<path d="M116.886 429.672L129.802 429.671C134.347 429.671 138.032 433.356 138.033 437.902V438.169L116.887 438.17L116.886 429.672Z" fill="#2F2E41"/>
<path d="M110.521 228.142L114.801 255.423L74.1462 255.958L79.4952 229.747L110.521 228.142Z" fill="#9E616A"/>
<path d="M113.621 249.212L126.57 283.69L128.175 426.572H117.208L90.9965 311.774L66.9244 423.576H56.2261L63.7151 297.866C63.7151 297.866 61.5067 272.635 72.809 257.746L75.5601 249.798L113.621 249.212Z" fill="#2F2E41"/>
<path d="M58.0798 275.642C60.3713 275.018 62.2685 273.41 63.2609 271.253C64.2533 269.095 64.239 266.608 63.2217 264.462L80.517 208.075L67.7957 205.554L51.9775 260.824C48.407 262.816 46.8903 267.163 48.4472 270.944C50.004 274.724 54.1423 276.743 58.0798 275.642Z" fill="#9E616A"/>
<path d="M80.8903 243.137C80.6529 243.137 80.4162 243.113 80.1834 243.067C78.5747 242.745 77.3774 241.391 77.255 239.755C76.8529 234.249 74.8603 224.665 71.3327 211.269C68.8911 201.934 72.6604 192.08 80.7086 186.758C88.7568 181.436 99.2996 181.825 106.934 187.726C111.751 191.416 114.852 196.914 115.52 202.945C117.273 218.385 113.968 233.887 112.465 239.835C112.06 241.431 110.639 242.56 108.993 242.595L80.9682 243.136C80.942 243.137 80.9165 243.137 80.8903 243.137Z" fill="#3F3D56"/>
<path d="M159.303 193.591C159.135 193.969 158.996 194.359 158.889 194.758L123.811 206.678L117.033 200.757L106.759 209.818L117.74 221.467C119.562 223.4 122.441 223.899 124.807 222.69L162.344 203.517C165.123 205.221 168.667 205.029 171.245 203.032C173.823 201.036 174.897 197.653 173.942 194.535C172.987 191.418 170.202 189.216 166.949 189.006C163.695 188.797 160.651 190.622 159.303 193.591Z" fill="#9E616A"/>
<path d="M122.47 207.324L109.683 218.493C108.946 219.136 107.967 219.427 106.999 219.289C106.031 219.152 105.171 218.6 104.643 217.778L95.4958 203.535C92.1152 199.641 92.531 193.744 96.4245 190.364C100.318 186.983 106.215 187.399 109.595 191.292L122.44 202.233C123.183 202.868 123.615 203.794 123.621 204.772C123.626 205.749 123.207 206.681 122.47 207.324Z" fill="#3F3D56"/>
<path d="M78.4964 222.423L62.6935 216.215C61.7837 215.857 61.0745 215.122 60.7508 214.199C60.427 213.277 60.5208 212.259 61.0076 211.412L69.4392 196.734C71.3386 191.94 76.7644 189.594 81.5581 191.493C86.3517 193.393 88.6979 198.819 86.7985 203.612L83.0009 220.052C82.7806 221.004 82.1567 221.814 81.2917 222.269C80.4267 222.724 79.4063 222.781 78.4964 222.423Z" fill="#3F3D56"/>
<circle cx="90.2112" cy="162.243" r="17.1896" fill="#9E616A"/>
<path d="M102.036 155.327C105.724 155.306 109.412 155.285 113.1 155.264C113.362 152.751 112.244 150.25 110.614 148.319C108.896 146.461 106.937 144.841 104.789 143.503C102.674 142.052 100.482 140.567 97.9673 140.06C95.8592 139.634 93.6805 139.929 91.5509 140.225C88.7266 140.618 85.9024 141.011 83.0784 141.404C79.9783 141.835 76.7347 142.322 74.2169 144.182C70.8117 146.696 69.5092 151.101 68.4151 155.19L62.3588 177.822L98.1316 181.574C99.4257 181.797 100.751 181.758 102.03 181.461C103.332 181.133 104.313 180.061 104.523 178.735C104.626 177.276 103.469 176.082 102.529 174.961C97.9388 169.274 97.334 161.344 101.008 155.026L102.036 155.327Z" fill="#2F2E41"/>
</svg>
