<svg width="80" height="78" viewBox="0 0 80 78" fill="none" xmlns="http://www.w3.org/2000/svg">
<path d="M79.9985 44.1826V39.9389C76.9949 39.9389 74.5572 37.2755 74.5572 34.0095L7.75532 33.9653C7.75532 34.5938 7.5021 35.1612 7.0826 35.5716C6.67226 35.9911 6.1048 36.2443 5.47632 36.2443C5.33598 36.2443 5.19716 36.2275 5.06598 36.2C4.25444 38.3662 2.29731 39.8946 0.0183054 39.8855V44.1384C0.892381 44.1384 1.59866 44.9072 1.59866 45.8591C1.5895 46.811 0.881702 47.5798 0.00915268 47.5798V48.9069C0.883228 48.9069 1.5895 49.6757 1.5895 50.6185C1.5895 51.5612 0.881702 52.3392 0.00915268 52.3392V53.6663C0.883228 53.6663 1.5895 54.4427 1.5895 55.387C1.5895 56.3312 0.881702 57.1077 0 57.1077V58.4348C0.881702 58.4348 1.5895 59.2036 1.5895 60.1555C1.5895 61.1074 0.874075 61.8762 0 61.8762V63.1957C0.874075 63.1957 1.58035 63.9645 1.58035 64.9164C1.58035 65.8683 0.87255 66.6371 0 66.6371V71.073C3.01274 71.0822 5.44886 73.7273 5.44123 77.0116L74.5313 77.0558C74.5313 73.7715 76.9766 71.1264 79.9817 71.1264L79.9908 66.6813C79.1168 66.6813 78.4105 65.9125 78.4105 64.9606C78.4105 64.0088 79.1183 63.2491 79.9908 63.2491V61.922C79.1168 61.922 78.4105 61.144 78.4105 60.2013C78.4105 59.2585 79.1259 58.4806 79.9908 58.4806L80 57.1534C79.1259 57.1534 78.4196 56.3846 78.4196 55.4327C78.4196 54.4809 79.1275 53.7212 80 53.7212V52.3941C79.1259 52.3941 78.4196 51.6161 78.4196 50.6734C78.4196 49.7307 79.1275 48.9527 80 48.9527V47.6256C79.1259 47.6256 78.4196 46.8567 78.4196 45.9049C78.4196 44.953 79.1275 44.1842 80 44.1842L79.9985 44.1826ZM18.6729 47.0917H10.4203L13.3903 38.839H21.6429L18.6729 47.0917ZM29.3708 38.839H37.6234L34.6533 47.0917H26.4007L29.3708 38.839ZM46.7333 63.7204L35.3367 70.2966C34.9264 70.5407 34.4718 70.6627 34.0172 70.6627C33.5627 70.6627 33.1096 70.5407 32.6901 70.2966C31.8603 69.8252 31.363 68.9603 31.363 67.9993V54.847C31.363 53.8859 31.8603 53.021 32.6901 52.5497C33.52 52.06 34.5069 52.06 35.3367 52.5405L46.7333 59.1258C47.5723 59.6063 48.0696 60.4621 48.0696 61.4231C48.0696 62.3842 47.5723 63.2399 46.7333 63.7204ZM50.6369 47.0917H42.3843L45.3543 38.839H53.6069L50.6369 47.0917ZM66.6189 47.0917H58.3571L61.3271 38.839H69.5889L66.6189 47.0917Z" fill="#FEBE08"/>
<path d="M67.824 0.944153L1.62463 21.6428L4.79449 31.7915C5.01263 31.7305 5.23992 31.6954 5.47636 31.6954C6.48925 31.6954 7.35417 32.3681 7.65011 33.2849L71.6742 13.2666L67.824 0.944153ZM12.533 29.4591L7.20621 22.4894L15.0744 19.9923L20.4012 26.962L12.533 29.4591ZM27.7645 24.6113L22.4377 17.6507L30.2983 15.1444L35.6342 22.1142L27.766 24.6113L27.7645 24.6113ZM42.996 19.7726L37.6692 12.8029L45.5298 10.2966L50.8657 17.2663L42.9975 19.7726H42.996ZM58.2275 14.9248L52.9007 7.95506L60.7612 5.45792L66.0881 12.4185L58.2275 14.9248Z" fill="#FEBE08"/>
<circle cx="5.47637" cy="33.9668" r="1.71917" fill="#FEBE08"/>
</svg>
