<svg width="32" height="32" viewBox="0 0 32 32" fill="none" xmlns="http://www.w3.org/2000/svg">
<path d="M20.6937 8C20.6937 3.588 16.9815 0 12.4168 0C7.85204 0 4.13984 3.588 4.13984 8C4.13984 12.412 7.85204 16 12.4168 16C16.9815 16 20.6937 12.412 20.6937 8ZM12.4168 13.3333C9.37362 13.3333 6.89882 10.9413 6.89882 8C6.89882 5.05867 9.37362 2.66667 12.4168 2.66667C15.4599 2.66667 17.9347 5.05867 17.9347 8C17.9347 10.9413 15.4599 13.3333 12.4168 13.3333ZM12.4057 19.9173C12.4995 20.648 11.9643 21.3133 11.207 21.4053C6.39116 21.9867 2.75897 25.9667 2.75897 30.6667C2.75897 31.4027 2.14096 32 1.37949 32C0.61801 32 0 31.4027 0 30.6667C0 24.6253 4.67094 19.5067 10.8648 18.76C11.6125 18.668 12.3092 19.1867 12.4043 19.9187L12.4057 19.9173ZM31.3102 25.5107L29.9666 24.7613C30.1956 24.0987 30.3501 23.4027 30.3501 22.6653C30.3501 21.928 30.197 21.232 29.9666 20.5693L31.3102 19.82C31.9696 19.452 32.1959 18.636 31.8151 17.9987C31.433 17.36 30.5915 17.14 29.9307 17.5107L28.5885 18.26C27.616 17.2013 26.3206 16.4267 24.8322 16.1347V14.6667C24.8322 13.9307 24.2141 13.3333 23.4527 13.3333C22.6912 13.3333 22.0732 13.9307 22.0732 14.6667V16.1347C20.5847 16.428 19.2894 17.2027 18.3168 18.26L16.9746 17.5107C16.3124 17.1413 15.471 17.36 15.0902 17.9987C14.7095 18.6373 14.9357 19.452 15.5951 19.82L16.9387 20.5693C16.7097 21.232 16.5552 21.928 16.5552 22.6653C16.5552 23.4027 16.7084 24.0987 16.9387 24.7613L15.5951 25.5107C14.9357 25.8787 14.7095 26.6947 15.0902 27.332C15.3468 27.76 15.8089 27.9987 16.2862 27.9987C16.5194 27.9987 16.7566 27.9413 16.9746 27.82L18.3168 27.0707C19.2894 28.1293 20.5847 28.904 22.0732 29.196V30.664C22.0732 31.4 22.6912 31.9973 23.4527 31.9973C24.2141 31.9973 24.8322 31.4 24.8322 30.664V29.196C26.3206 28.9027 27.616 28.128 28.5885 27.0707L29.9307 27.82C30.1487 27.9413 30.386 27.9987 30.6191 27.9987C31.0964 27.9987 31.5599 27.76 31.8151 27.332C32.1959 26.6933 31.9696 25.8787 31.3102 25.5107ZM23.4527 26.6653C21.171 26.6653 19.3142 24.8707 19.3142 22.6653C19.3142 20.46 21.171 18.6653 23.4527 18.6653C25.7343 18.6653 27.5911 20.46 27.5911 22.6653C27.5911 24.8707 25.7343 26.6653 23.4527 26.6653Z" fill="black"/>
</svg>
