<svg width="292" height="200" viewBox="0 0 292 200" fill="none" xmlns="http://www.w3.org/2000/svg">
<g filter="url(#filter0_d_1_13008)">
<path d="M2 18C2 9.16345 9.16344 2 18 2H274C282.837 2 290 9.16344 290 18V182C290 190.837 282.837 198 274 198H18C9.16345 198 2 190.837 2 182V18Z" fill="#707070"/>
<path d="M2.5 18C2.5 9.43959 9.43959 2.5 18 2.5H274C282.56 2.5 289.5 9.43959 289.5 18V182C289.5 190.56 282.56 197.5 274 197.5H18C9.43959 197.5 2.5 190.56 2.5 182V18Z" stroke="#FEBE08"/>
</g>
<path d="M175.583 64.4387C175.205 64.4387 174.897 64.7463 174.897 65.1246V87.073C174.897 87.4513 175.205 87.7589 175.583 87.7589C175.961 87.7589 176.269 87.4513 176.269 87.073V65.1246C176.269 64.7463 175.961 64.4387 175.583 64.4387Z" fill="#F2F2F2"/>
<rect x="56.9275" y="7.4939" width="120.364" height="187.268" fill="#2B2A2D" stroke="#161616" stroke-width="2"/>
<path d="M72.2051 13.9023C72.2051 13.4288 72.5889 13.0449 73.0624 13.0449H84.7225C85.196 13.0449 85.5799 13.4288 85.5799 13.9023C85.5799 14.3758 85.196 14.7596 84.7225 14.7596H73.0624C72.5889 14.7596 72.2051 14.3758 72.2051 13.9023Z" fill="white"/>
<circle cx="152.782" cy="13.3879" r="1.37177" fill="white"/>
<circle cx="156.553" cy="13.3879" r="1.37177" fill="white"/>
<circle cx="160.325" cy="13.3879" r="1.37177" fill="white"/>
<ellipse cx="78.8612" cy="53.9573" rx="6.65616" ry="6.51593" fill="#FEBE08"/>
<path d="M132.214 51.7288H96.3866C95.1575 51.7288 94.1575 50.7288 94.1575 49.4996C94.1575 48.2705 95.1575 47.2705 96.3866 47.2705H132.214C133.443 47.2705 134.443 48.2705 134.443 49.4996C134.443 50.7288 133.443 51.7288 132.214 51.7288Z" fill="white"/>
<path d="M74.623 127.145C74.0511 127.145 73.5859 127.61 73.5859 128.182C73.5859 128.754 74.0511 129.219 74.623 129.219H112.149C112.72 129.219 113.186 128.754 113.186 128.182C113.186 127.61 112.72 127.145 112.149 127.145H74.623Z" fill="white"/>
<path d="M160.171 59.272H96.3834C95.1543 59.272 94.1543 58.272 94.1543 57.0429C94.1543 55.8138 95.1543 54.8137 96.3834 54.8137H160.171C161.4 54.8137 162.4 55.8138 162.4 57.0429C162.4 58.272 161.4 59.272 160.171 59.272Z" fill="white"/>
<path d="M87.3803 27.7309H73.7482C72.8027 27.7309 72.0334 26.9617 72.0334 26.0162C72.0334 25.0708 72.8027 24.3015 73.7482 24.3015H87.3803C88.3258 24.3015 89.0949 25.0708 89.0949 26.0162C89.0949 26.9617 88.3258 27.7309 87.3803 27.7309Z" fill="white"/>
<path d="M144.819 26.0161C144.819 25.1638 145.51 24.4729 146.362 24.4729H159.994C160.846 24.4729 161.537 25.1638 161.537 26.0161C161.537 26.8685 160.846 27.5594 159.994 27.5594H146.362C145.51 27.5594 144.819 26.8685 144.819 26.0161Z" fill="#FEBE08"/>
<path d="M140.45 27.7309H126.818C125.873 27.7309 125.104 26.9617 125.104 26.0162C125.104 25.0708 125.873 24.3015 126.818 24.3015H140.45C141.396 24.3015 142.165 25.0708 142.165 26.0162C142.165 26.9617 141.396 27.7309 140.45 27.7309Z" fill="white"/>
<path d="M89.3521 122.111H76.3203C73.9565 122.111 72.0334 120.188 72.0334 117.824V113.566C72.0334 111.202 73.9565 109.279 76.3203 109.279H89.3521C91.7159 109.279 93.6389 111.202 93.6389 113.566V117.824C93.6389 120.188 91.7159 122.111 89.3521 122.111Z" fill="white"/>
<path d="M158.118 97.5763H76.3151C73.9514 97.5763 72.0283 95.6532 72.0283 93.2895V74.5282C72.0283 72.1645 73.9514 70.2415 76.3151 70.2415H158.118C160.482 70.2415 162.405 72.1645 162.405 74.5282V93.2895C162.405 95.6532 160.482 97.5763 158.118 97.5763Z" fill="#FEBE08"/>
<path d="M157.583 122.111H144.551C142.187 122.111 140.264 120.188 140.264 117.824V113.566C140.264 111.202 142.187 109.279 144.551 109.279H157.583C159.947 109.279 161.87 111.202 161.87 113.566V117.824C161.87 120.188 159.947 122.111 157.583 122.111Z" fill="white"/>
<path d="M123.135 122.111H110.103C107.74 122.111 105.817 120.188 105.817 117.824V113.566C105.817 111.202 107.74 109.279 110.103 109.279H123.135C125.499 109.279 127.422 111.202 127.422 113.566V117.824C127.422 120.188 125.499 122.111 123.135 122.111Z" fill="white"/>
<rect x="83.699" y="141.037" width="10.2883" height="9.60242" fill="white"/>
<rect x="88.1572" y="154.755" width="5.83004" height="9.60242" fill="white"/>
<rect x="97.0737" y="154.755" width="10.2883" height="9.60242" fill="white"/>
<rect x="97.0737" y="168.472" width="10.2883" height="9.60242" fill="white"/>
<rect x="110.448" y="154.755" width="10.2883" height="9.60242" fill="white"/>
<rect x="97.0737" y="141.037" width="10.2883" height="9.60242" fill="white"/>
<rect x="110.448" y="141.037" width="10.2883" height="9.60242" fill="white"/>
<rect x="137.198" y="141.037" width="10.2883" height="9.60242" fill="white"/>
<rect x="110.448" y="168.472" width="10.2883" height="9.60242" fill="white"/>
<rect x="123.823" y="141.037" width="10.2883" height="9.60242" fill="white"/>
<path d="M152.802 154.755H146.115V164.357H152.802C153.749 164.357 154.517 163.589 154.517 162.642V156.469C154.517 155.522 153.749 154.755 152.802 154.755Z" fill="white"/>
<path d="M93.9872 168.472H91.9296C90.9825 168.472 90.2148 169.24 90.2148 170.187V176.36C90.2148 177.307 90.9825 178.075 91.9296 178.075H93.9872V168.472Z" fill="white"/>
<rect x="123.823" y="168.472" width="10.2883" height="9.60242" fill="white"/>
<path d="M160.518 141.037H150.573V150.639H160.518C161.465 150.639 162.233 149.872 162.233 148.925V142.752C162.233 141.805 161.465 141.037 160.518 141.037Z" fill="white"/>
<path d="M143.028 168.617C142.818 168.525 142.586 168.473 142.342 168.473H137.198V178.075H142.342C142.586 178.075 142.818 178.022 143.028 177.93V168.617Z" fill="white"/>
<rect x="123.823" y="154.755" width="10.2883" height="9.60242" fill="white"/>
<rect x="137.198" y="154.755" width="5.83004" height="9.60242" fill="white"/>
<path d="M85.0708 154.755H81.4698C80.5228 154.755 79.7551 155.522 79.7551 156.469V162.642C79.7551 163.589 80.5228 164.357 81.4698 164.357H85.0708V154.755Z" fill="white"/>
<path d="M80.6124 141.037H73.7535C72.8065 141.037 72.0388 141.805 72.0388 142.752V148.925C72.0388 149.872 72.8065 150.639 73.7535 150.639H80.6124V141.037Z" fill="white"/>
<path d="M195.836 191.397L191.765 191.397L189.828 175.694L195.837 175.694L195.836 191.397Z" fill="#FFB6B6"/>
<path d="M196.873 190.067V195.343H183.747V195.177C183.747 192.356 186.034 190.068 188.856 190.067L191.256 188.248L191.381 188.299L195.728 190.067H196.873Z" fill="#161616"/>
<path d="M232.621 186.104L228.978 187.92L220.24 174.73L225.617 172.05L232.621 186.104Z" fill="#FFB6B6"/>
<path d="M235.311 189.174L223.563 195.027L223.49 194.88C222.229 192.355 223.255 189.287 225.781 188.028L227.118 185.331L227.259 185.322L231.931 184.961L232.027 184.913L232.958 184.45L235.311 189.174Z" fill="#161616"/>
<path d="M193.075 106.995L215.524 107.781L215.68 107.554C215.68 107.554 217.595 112.022 217.595 115.851C217.595 117.125 216.71 125.453 217.16 127.028C217.216 127.224 216.831 127.704 216.957 128.617C217.039 129.209 217.491 128.754 217.595 129.574C217.67 130.163 216.874 130.489 216.957 131.17C217.048 131.915 218.143 134.326 218.242 135.154C219.291 143.971 220.689 156.743 220.689 156.743C220.689 156.743 226.301 171.776 227.489 172.02C229.481 172.43 230.827 176.053 229.723 176.807C229.197 177.166 222.4 179.58 222.4 179.58C222.027 179.647 220.858 179.062 221.603 177.676C221.74 177.421 220.922 178.07 220.787 177.764C220.642 177.44 220.926 176.147 220.76 175.787C219.275 172.55 216.994 168.064 214.833 165.76C211.64 162.357 209.618 158.022 209.062 153.389L204.105 125.903L202.406 133.611L201 135L201.386 138.239L201.319 141.383L197.809 154.467C197.809 154.467 197.282 178.903 198.128 179.679C198.586 180.1 200.529 185.276 196.851 185.743L190.169 185.227C190.169 185.227 189.269 183.33 189.719 182.655C190.169 181.98 190.142 182.164 189.593 181.059C189.043 179.954 189.269 178.081 189.269 178.081C188.393 169.281 188.048 160.437 188.234 151.595C188.569 137.073 190.599 120.39 190.599 120.05C190.616 119.703 190.552 119.356 190.412 119.038L190.412 118.121L191.275 114.873L193.075 106.995Z" fill="#161616"/>
<path d="M222.138 115.161C222.519 114.509 222.592 113.723 222.338 113.013C222.083 112.303 221.527 111.742 220.819 111.481L220.98 95.3511L217.002 97.868L217.459 113.155C217.092 114.401 217.715 115.724 218.908 116.236C220.102 116.747 221.489 116.285 222.138 115.161Z" fill="#FFB8B8"/>
<path d="M221.23 108.399L220.891 108.383L220.851 108.384L219.598 108.379L217.534 108.375L217.385 108.373L217.318 108.386L216.613 108.508L216.584 108.319L215.211 105.696L214.155 104.244L214.539 102.533L215.297 101.589L214.01 100.03L213.847 99.2596L212.77 94.1946L209.2 77.3955L209.2 77.3854L209.125 77.0289L207.964 71.5715L208.322 70.1992L208.72 68.6925C208.975 67.7361 209.566 66.9034 210.385 66.347C210.74 66.1066 211.131 65.9239 211.544 65.8057C212.07 65.6501 212.622 65.6046 213.166 65.6723L213.172 65.6741C213.481 65.7125 213.784 65.7858 214.076 65.8927L214.192 65.9381C214.354 66.0037 214.512 66.0795 214.664 66.165C215.616 66.6947 216.317 67.5844 216.607 68.6347L220.39 72.8484L221.055 75.2326L221.269 75.9983L221.955 80.0801L221.945 96.1433L222.067 96.871L222.241 100.904L221.562 101.828L222.329 102.949L222.355 103.564L222.36 103.722L221.336 104.762L221.271 107.004L221.23 108.399Z" fill="#E6E6E6"/>
<path d="M217.535 112.246C211.867 113.227 208.066 112.853 205.727 109.374C202.676 105.488 197.126 110.077 192.444 111.783L191.888 111.183L190.944 110.164L191.812 109.182L190.944 107.286L191.668 104.947L192.594 104.777L192.345 102.764L191.955 101.586L193.098 100.332L194.068 97.201L193.369 90.6491C192.413 81.6683 194.266 72.6118 198.673 64.7285L201.325 62.3477L202.426 61.3585L203.904 58.6011L205.464 58.783L209.69 59.2712L209.834 59.6159L210.871 62.118L214.639 66.1655C215.717 67.3235 216.245 68.8891 216.089 70.4635L215.98 71.555L215.9 72.3401L215.524 76.1187L213.989 91.5555L213.874 92.3757L212.639 101.251C214.646 103.191 214.768 102.768 215.62 106.183C215.716 106.563 216.827 107.408 216.897 107.779C216.996 108.302 217.535 112.246 217.535 112.246Z" fill="#E6E6E6"/>
<ellipse cx="206.026" cy="49.6354" rx="7.33901" ry="7.33901" fill="#FFB6B6"/>
<path d="M213.705 44.1107C212.72 43.0851 211.146 42.5792 209.81 43.0659C209.201 41.323 207.672 40.0639 205.845 39.7996C204.018 39.5354 202.195 40.31 201.118 41.8089C200.626 41.588 200.054 41.6405 199.611 41.9473C199.178 42.2551 198.83 42.6664 198.597 43.1437C197.375 45.4663 197.528 48.2729 198.997 50.4481C198.71 49.8682 199.517 50.8669 200.304 50.6053C200.98 50.4281 203.757 48.6474 204.45 48.7374C205.143 48.8275 205.368 48.2686 206.046 48.0992C206.71 47.8868 208.405 50.6317 208.745 52.4479C208.809 52.7921 208.966 53.2197 209.316 53.2276C209.747 53.2372 209.876 52.6198 210.239 52.3879C210.596 52.2067 211.032 52.3402 211.225 52.6899C211.398 53.0408 211.39 53.4533 211.204 53.7975C211.019 54.1346 210.779 54.4395 210.496 54.7005L210.685 54.804C211.067 55.0779 211.59 55.0424 211.932 54.7193C212.633 55.0355 214.54 53.2521 214.287 52.1731C214.819 50.8506 215.11 49.4433 215.146 48.0182C215.175 46.5806 214.661 45.185 213.705 44.1107Z" fill="#161616"/>
<path d="M159.869 87.8568C160.588 88.0836 161.371 87.9799 162.007 87.5739C162.643 87.1678 163.066 86.5009 163.163 85.7527L178.925 82.3244L175.587 79.0049L160.784 82.8491C159.487 82.7679 158.335 83.669 158.102 84.9466C157.868 86.2242 158.628 87.4745 159.869 87.8568Z" fill="#FFB8B8"/>
<path d="M202.465 65.1024C203.379 65.1357 204.255 65.4725 204.956 66.0597C205.344 66.381 205.667 66.7731 205.909 67.2149C206.175 67.6942 206.341 68.2225 206.397 68.7679L206.397 68.7711C206.564 70.4134 205.726 71.995 204.274 72.7799L199.082 75.5937L198.424 75.9493C194 80.4585 186.54 82.8156 177.958 84.3793L173.024 85.729L171.365 85.1134L170.964 86.6904L169.312 86.7444L168.414 86.5578L166.535 85.8209L166.176 85.0991L166.177 85.096L165.405 81.6748L165.4 81.6521L165.4 81.6489L165.22 80.8662L166.28 80.3759L167.202 79.1446L168.869 79.178L170.389 79.3103L170.834 78.2685L190.097 69.3549L194.085 67.5075L194.095 67.5016L194.285 67.4124L199.488 65.0054L200.905 65.0502L202.465 65.1024Z" fill="#E6E6E6"/>
<defs>
<filter id="filter0_d_1_13008" x="0" y="0" width="292" height="200" filterUnits="userSpaceOnUse" color-interpolation-filters="sRGB">
<feFlood flood-opacity="0" result="BackgroundImageFix"/>
<feColorMatrix in="SourceAlpha" type="matrix" values="0 0 0 0 0 0 0 0 0 0 0 0 0 0 0 0 0 0 127 0" result="hardAlpha"/>
<feOffset/>
<feGaussianBlur stdDeviation="1"/>
<feComposite in2="hardAlpha" operator="out"/>
<feColorMatrix type="matrix" values="0 0 0 0 0.0862745 0 0 0 0 0.0862745 0 0 0 0 0.0862745 0 0 0 0.160784 0"/>
<feBlend mode="normal" in2="BackgroundImageFix" result="effect1_dropShadow_1_13008"/>
<feBlend mode="normal" in="SourceGraphic" in2="effect1_dropShadow_1_13008" result="shape"/>
</filter>
</defs>
</svg>
