<svg width="292" height="200" viewBox="0 0 292 200" fill="none" xmlns="http://www.w3.org/2000/svg">
<g filter="url(#filter0_d_1_13016)">
<path d="M2 18C2 9.16345 9.16344 2 18 2H274C282.837 2 290 9.16344 290 18V182C290 190.837 282.837 198 274 198H18C9.16345 198 2 190.837 2 182V18Z" fill="#707070"/>
<path d="M2.5 18C2.5 9.43959 9.43959 2.5 18 2.5H274C282.56 2.5 289.5 9.43959 289.5 18V182C289.5 190.56 282.56 197.5 274 197.5H18C9.43959 197.5 2.5 190.56 2.5 182V18Z" stroke="#FEBE08"/>
</g>
<path d="M250.907 192.394L246.773 192.394L244.807 176.449H250.908L250.907 192.394Z" fill="#FFB6B6"/>
<path d="M251.961 196.401L238.631 196.401V196.232C238.631 193.367 240.954 191.044 243.819 191.044L251.961 191.044L251.961 196.401Z" fill="#161616"/>
<path d="M217.453 192.259L213.432 191.3L215.218 175.333L221.153 176.749L217.453 192.259Z" fill="#FFB6B6"/>
<path d="M217.556 196.401L204.591 193.308L204.63 193.144C205.295 190.357 208.093 188.637 210.88 189.302L218.799 191.191L217.556 196.401Z" fill="#161616"/>
<circle cx="233.011" cy="49.0418" r="8.74345" fill="#FFB6B6"/>
<path d="M253.497 111.099C253.497 111.099 257.568 115.923 252.442 123.31C247.317 130.697 242.582 137.933 242.582 137.933L231.125 159.641L218.893 188.472C218.893 188.472 211.506 186.361 211.204 185.456C210.903 184.552 219.969 155.571 219.969 155.571C219.969 155.571 221.731 144.014 223.691 140.245C225.651 136.476 230.567 107.675 235.241 107.373C239.914 107.072 253.497 111.099 253.497 111.099Z" fill="#161616"/>
<path d="M252.724 119.692L253.265 143.058C253.265 143.058 255.842 162.925 254.335 169.859C252.827 176.794 252.21 188.132 252.21 188.132L244.521 187.379L243.918 160.395C243.918 160.395 241.808 155.872 242.411 153.912C243.014 151.953 239.848 135.822 239.848 135.822L252.724 119.692Z" fill="#161616"/>
<path d="M227.21 112.082C231.733 116.904 254.255 112.834 254.255 112.834L253.955 109.367L254.269 106.203L253.365 91.429C253.018 85.5074 252.986 79.5715 253.271 73.6466C253.299 72.998 253.26 72.3483 253.155 71.7077C251.601 62.2546 243.612 56.4625 243.189 56.6054C242.976 56.6754 240.71 57.8563 238.346 59.0984C235.631 60.5243 232.788 62.0317 232.788 62.0317C229.17 63.3905 229.773 85.0987 228.566 87.0581C227.359 89.0176 228.566 95.7998 228.566 95.7998L227.21 102.282C227.21 102.282 222.688 107.259 227.21 112.082Z" fill="#E6E6E6"/>
<path opacity="0.1" d="M241.821 64.2007C241.821 64.2007 246.042 76.8637 245.137 85.4564C244.233 94.0491 234.434 118.621 234.434 118.621L231.117 120.43V124.651L228.785 118.333L235.2 104.92C235.2 104.92 227.198 58.6231 241.821 64.2007Z" fill="black"/>
<path d="M235.89 52.7654C235.847 52.2218 235.728 51.6868 235.537 51.1759C235.153 50.4537 234.272 50.1512 233.457 50.0803C232.417 49.9897 231.369 50.1698 230.327 50.0985C229.285 50.0272 228.172 49.6303 227.654 48.724C227.496 48.3388 227.301 47.9702 227.071 47.6236C226.5 46.9712 225.459 47.0724 224.638 47.3519C223.818 47.6314 222.962 48.0399 222.123 47.821C221.418 45.8477 222.286 43.5713 223.788 42.11C225.291 40.6487 227.317 39.8624 229.329 39.2763C231.983 38.5033 234.969 38.0463 237.41 39.3451C240.948 41.2285 242.197 46.2131 241.87 49.9284C241.747 51.3328 241.545 52.9231 240.41 53.8714C238.745 55.2608 236.393 55.1416 235.89 52.7654Z" fill="#161616"/>
<path d="M227.813 130.608C228.636 129.948 229.124 128.958 229.146 127.904C229.168 126.85 228.722 125.84 227.928 125.146L232.673 113.408L226.223 114.708L222.707 125.655C221.605 127.098 221.757 129.136 223.06 130.4C224.363 131.663 226.405 131.753 227.813 130.608Z" fill="#FFB6B6"/>
<path d="M241.377 62.1653C241.377 62.1653 245.598 74.8283 244.694 83.421C243.789 92.0138 233.99 116.586 233.99 116.586L230.674 118.395V122.616L223.74 120.656L225.247 115.681C225.247 115.681 222.835 112.666 224.493 111.762C226.152 110.857 225.85 105.883 225.85 105.883C225.85 105.883 226.755 56.5877 241.377 62.1653Z" fill="#E6E6E6"/>
<path d="M162.215 194.889H27.6606V22.679H162.215V194.889Z" fill="#2B2A2D"/>
<path d="M162.215 194.889H27.6606V22.679H162.215V194.889ZM28.8587 193.723H161.017V23.8447H28.8587V193.723Z" fill="#161616"/>
<rect x="48.0242" y="66.1963" width="93.6616" height="6.24413" fill="white"/>
<rect x="69.4631" y="45.1321" width="60.211" height="3.12206" fill="white"/>
<rect x="48.0242" y="79.6401" width="93.6616" height="6.24413" fill="white"/>
<rect x="48.0242" y="93.0842" width="93.6616" height="6.24413" fill="white"/>
<circle cx="52.8911" cy="46.4702" r="5.79812" fill="#FEBE08"/>
<rect x="47.1301" y="111.013" width="94.5539" height="57.5352" fill="#FEBE08"/>
<path d="M52.3238 176.696C51.1057 175.475 49.1289 175.473 47.9085 176.691C46.6882 177.909 46.6861 179.886 47.9042 181.107L52.3151 185.526L56.7347 181.115C57.9551 179.897 57.957 177.92 56.7391 176.7C55.521 175.48 53.5442 175.478 52.3238 176.696Z" fill="#FEBE08"/>
<defs>
<filter id="filter0_d_1_13016" x="0" y="0" width="292" height="200" filterUnits="userSpaceOnUse" color-interpolation-filters="sRGB">
<feFlood flood-opacity="0" result="BackgroundImageFix"/>
<feColorMatrix in="SourceAlpha" type="matrix" values="0 0 0 0 0 0 0 0 0 0 0 0 0 0 0 0 0 0 127 0" result="hardAlpha"/>
<feOffset/>
<feGaussianBlur stdDeviation="1"/>
<feComposite in2="hardAlpha" operator="out"/>
<feColorMatrix type="matrix" values="0 0 0 0 0.0862745 0 0 0 0 0.0862745 0 0 0 0 0.0862745 0 0 0 0.160784 0"/>
<feBlend mode="normal" in2="BackgroundImageFix" result="effect1_dropShadow_1_13016"/>
<feBlend mode="normal" in="SourceGraphic" in2="effect1_dropShadow_1_13016" result="shape"/>
</filter>
</defs>
</svg>
