<svg width="40" height="37" viewBox="0 0 40 37" fill="none" xmlns="http://www.w3.org/2000/svg">
<g filter="url(#filter0_d_1_3012)">
<path d="M15.9158 22.0667L20 18.86L24 22.0233L22.4842 16.91L26.6526 13.5733H21.6421L20 8.41667L18.3579 13.5733H13.3474L17.4316 16.91L15.9158 22.0667ZM6.52631 29C5.82456 29 5.22835 28.7469 4.73768 28.2408C4.24589 27.7358 4 27.1222 4 26.4V20.16C4.95439 19.9867 5.75438 19.51 6.4 18.73C7.04561 17.95 7.36842 17.04 7.36842 16C7.36842 14.96 7.04561 14.05 6.4 13.27C5.75438 12.49 4.95439 12.0133 4 11.84V5.6C4 4.87778 4.24589 4.26418 4.73768 3.7592C5.22835 3.25307 5.82456 3 6.52631 3H33.4737C34.1754 3 34.7716 3.25307 35.2623 3.7592C35.7541 4.26418 36 4.87778 36 5.6V11.84C35.0456 12.0133 34.2456 12.49 33.6 13.27C32.9544 14.05 32.6316 14.96 32.6316 16C32.6316 17.04 32.9544 17.95 33.6 18.73C34.2456 19.51 35.0456 19.9867 36 20.16V26.4C36 27.1222 35.7541 27.7358 35.2623 28.2408C34.7716 28.7469 34.1754 29 33.4737 29H6.52631ZM6.52631 26.4H33.4737V21.98C32.4351 21.3444 31.6143 20.4997 31.0114 19.4459C30.4073 18.3908 30.1053 17.2422 30.1053 16C30.1053 14.7578 30.4073 13.6092 31.0114 12.5541C31.6143 11.5003 32.4351 10.6556 33.4737 10.02V5.6H6.52631V10.02C7.56491 10.6556 8.38625 11.5003 8.99032 12.5541C9.59326 13.6092 9.89474 14.7578 9.89474 16C9.89474 17.2422 9.59326 18.3908 8.99032 19.4459C8.38625 20.4997 7.56491 21.3444 6.52631 21.98V26.4Z" fill="black"/>
</g>
<defs>
<filter id="filter0_d_1_3012" x="0" y="3" width="40" height="34" filterUnits="userSpaceOnUse" color-interpolation-filters="sRGB">
<feFlood flood-opacity="0" result="BackgroundImageFix"/>
<feColorMatrix in="SourceAlpha" type="matrix" values="0 0 0 0 0 0 0 0 0 0 0 0 0 0 0 0 0 0 127 0" result="hardAlpha"/>
<feOffset dy="4"/>
<feGaussianBlur stdDeviation="2"/>
<feComposite in2="hardAlpha" operator="out"/>
<feColorMatrix type="matrix" values="0 0 0 0 0 0 0 0 0 0 0 0 0 0 0 0 0 0 0.25 0"/>
<feBlend mode="normal" in2="BackgroundImageFix" result="effect1_dropShadow_1_3012"/>
<feBlend mode="normal" in="SourceGraphic" in2="effect1_dropShadow_1_3012" result="shape"/>
</filter>
</defs>
</svg>
