<svg width="24" height="24" viewBox="0 0 24 24" fill="none" xmlns="http://www.w3.org/2000/svg">
<path d="M21.505 24H2.49497C1.11705 24 0 22.8589 0 21.4514V5.43048C0 4.02291 1.11705 2.88184 2.49497 2.88184H21.505C22.883 2.88184 24 4.02291 24 5.43048V21.4514C24 22.8589 22.883 24 21.505 24Z" fill="#FEBE08"/>
<path d="M6.85706 5.10054C6.85706 6.15394 6.0211 7.00822 4.98957 7.00822C3.95836 7.00822 3.12207 6.15394 3.12207 5.10054C3.12207 4.04716 3.95836 3.19287 4.98957 3.19287C6.0211 3.19287 6.85706 4.04716 6.85706 5.10054Z" fill="white"/>
<path d="M4.98995 6.38634C4.2806 6.38634 3.7002 5.79345 3.7002 5.06885V1.31749C3.7002 0.592889 4.2806 0 4.98995 0C5.69928 0 6.27969 0.592889 6.27969 1.31749V5.06885C6.27969 5.79345 5.69928 6.38634 4.98995 6.38634Z" fill="#2B2A2D"/>
<path d="M13.8678 5.10054C13.8678 6.15394 13.0318 7.00822 12.0003 7.00822C10.9691 7.00822 10.1328 6.15394 10.1328 5.10054C10.1328 4.04716 10.9691 3.19287 12.0003 3.19287C13.0318 3.19287 13.8678 4.04716 13.8678 5.10054Z" fill="white"/>
<path d="M11.9997 6.38634C11.2904 6.38634 10.71 5.79345 10.71 5.06885V1.31749C10.71 0.592889 11.2904 0 11.9997 0C12.709 0 13.2894 0.592889 13.2894 1.31749V5.06885C13.2894 5.79345 12.709 6.38634 11.9997 6.38634Z" fill="#2B2A2D"/>
<path d="M20.8772 5.10054C20.8772 6.15394 20.0413 7.00822 19.0097 7.00822C17.9785 7.00822 17.1426 6.15394 17.1426 5.10054C17.1426 4.04716 17.9785 3.19287 19.0097 3.19287C20.0413 3.19287 20.8772 4.04716 20.8772 5.10054Z" fill="white"/>
<path d="M19.0105 6.38634C18.3011 6.38634 17.7207 5.79345 17.7207 5.06885V1.31749C17.7207 0.592889 18.3011 0 19.0105 0C19.7198 0 20.3002 0.592889 20.3002 1.31749V5.06885C20.3002 5.79345 19.7198 6.38634 19.0105 6.38634Z" fill="#2B2A2D"/>
<path d="M20.9393 22.3615H3.0618C2.37467 22.3615 1.8125 21.7873 1.8125 21.085V10.1658C1.8125 9.4639 2.37467 8.88965 3.0618 8.88965H20.9393C21.6264 8.88965 22.1889 9.4639 22.1889 10.1658V21.085C22.1889 21.7873 21.6264 22.3615 20.9393 22.3615Z" fill="#2B2A2D"/>
<path d="M6.83209 13.2889H4.3368C4.14057 13.2889 3.98047 13.1251 3.98047 12.925V11.0437C3.98047 10.8432 4.14057 10.6797 4.3368 10.6797H6.83209C7.02767 10.6797 7.1881 10.8432 7.1881 11.0437V12.925C7.1881 13.1251 7.02767 13.2889 6.83209 13.2889Z" fill="#FEBE08"/>
<path d="M11.1084 13.2889H8.61348C8.41726 13.2889 8.25684 13.1251 8.25684 12.925V11.0437C8.25684 10.8432 8.41726 10.6797 8.61348 10.6797H11.1084C11.3044 10.6797 11.4648 10.8432 11.4648 11.0437V12.925C11.4648 13.1251 11.3044 13.2889 11.1084 13.2889Z" fill="#FEBE08"/>
<path d="M15.3858 13.2889H12.8908C12.6946 13.2889 12.5342 13.1251 12.5342 12.925V11.0437C12.5342 10.8432 12.6946 10.6797 12.8908 10.6797H15.3858C15.5817 10.6797 15.7421 10.8432 15.7421 11.0437V12.925C15.7421 13.1251 15.5817 13.2889 15.3858 13.2889Z" fill="#FEBE08"/>
<path d="M19.6638 13.2889H17.1688C16.9726 13.2889 16.8125 13.1251 16.8125 12.925V11.0437C16.8125 10.8432 16.9726 10.6797 17.1688 10.6797H19.6638C19.86 10.6797 20.0201 10.8432 20.0201 11.0437V12.925C20.0201 13.1251 19.86 13.2889 19.6638 13.2889Z" fill="#FEBE08"/>
<path d="M6.83209 16.8695H4.3368C4.14057 16.8695 3.98047 16.7056 3.98047 16.5059V14.6246C3.98047 14.4238 4.14057 14.2603 4.3368 14.2603H6.83209C7.02767 14.2603 7.1881 14.4238 7.1881 14.6246V16.5059C7.1881 16.7056 7.02767 16.8695 6.83209 16.8695Z" fill="#FEBE08"/>
<path d="M11.1084 16.8695H8.61348C8.41726 16.8695 8.25684 16.7056 8.25684 16.5059V14.6246C8.25684 14.4238 8.41726 14.2603 8.61348 14.2603H11.1084C11.3044 14.2603 11.4648 14.4238 11.4648 14.6246V16.5059C11.4648 16.7056 11.3044 16.8695 11.1084 16.8695Z" fill="#FEBE08"/>
<path d="M15.3858 16.8695H12.8908C12.6946 16.8695 12.5342 16.7056 12.5342 16.5059V14.6246C12.5342 14.4238 12.6946 14.2603 12.8908 14.2603H15.3858C15.5817 14.2603 15.7421 14.4238 15.7421 14.6246V16.5059C15.7421 16.7056 15.5817 16.8695 15.3858 16.8695Z" fill="#FEBE08"/>
<path d="M19.6638 16.8695H17.1688C16.9726 16.8695 16.8125 16.7056 16.8125 16.5059V14.6246C16.8125 14.4238 16.9726 14.2603 17.1688 14.2603H19.6638C19.86 14.2603 20.0201 14.4238 20.0201 14.6246V16.5059C20.0201 16.7056 19.86 16.8695 19.6638 16.8695Z" fill="#FEBE08"/>
<path d="M6.83209 20.4498H4.3368C4.14057 20.4498 3.98047 20.2859 3.98047 20.0858V18.2046C3.98047 18.0041 4.14057 17.8406 4.3368 17.8406H6.83209C7.02767 17.8406 7.1881 18.0041 7.1881 18.2046V20.0858C7.1881 20.2859 7.02767 20.4498 6.83209 20.4498Z" fill="#FEBE08"/>
<path d="M11.1084 20.4498H8.61348C8.41726 20.4498 8.25684 20.2859 8.25684 20.0858V18.2046C8.25684 18.0041 8.41726 17.8406 8.61348 17.8406H11.1084C11.3044 17.8406 11.4648 18.0041 11.4648 18.2046V20.0858C11.4648 20.2859 11.3044 20.4498 11.1084 20.4498Z" fill="#FEBE08"/>
<path d="M15.3858 20.4498H12.8908C12.6946 20.4498 12.5342 20.2859 12.5342 20.0858V18.2046C12.5342 18.0041 12.6946 17.8406 12.8908 17.8406H15.3858C15.5817 17.8406 15.7421 18.0041 15.7421 18.2046V20.0858C15.7421 20.2859 15.5817 20.4498 15.3858 20.4498Z" fill="#FEBE08"/>
</svg>
