<svg width="28" height="24" viewBox="0 0 28 24" fill="none" xmlns="http://www.w3.org/2000/svg">
<path d="M25.2683 7.31007V14.4119C25.2683 18.2619 22.0121 21.3828 17.9951 21.3828H10.0049C5.9879 21.3828 2.73171 18.2619 2.73171 14.4119V7.31007C2.73171 6.58679 2.12049 6.00098 1.36585 6.00098C0.611219 6.00098 0 6.58679 0 7.31007V14.2417C0 19.6319 4.55854 24.001 10.1824 24.001H17.8176C23.4415 24.001 28 19.6319 28 14.2417V7.31007C28 6.58679 27.3888 6.00098 26.6341 6.00098C25.8795 6.00098 25.2683 6.58679 25.2683 7.31007Z" fill="black"/>
<path d="M10.1111 -0.000488281H17.8889C19.5224 -0.000488281 21.0063 0.678147 22.2268 1.91245C23.2715 2.96229 24 4.62612 24 6.4701V13.5289C24 17.1025 21.264 19.9995 17.8889 19.9995H10.1111C6.73604 19.9995 4 17.1025 4 13.5289V6.4701C4 2.89649 6.73604 -0.000488281 10.1111 -0.000488281Z" fill="black"/>
</svg>
