<svg width="28" height="24" viewBox="0 0 28 24" fill="none" xmlns="http://www.w3.org/2000/svg">
<path d="M25.2683 6.99984V14.2332C25.2683 18.1545 22.0121 21.3332 17.9951 21.3332H10.0049C5.9879 21.3332 2.73171 18.1545 2.73171 14.2332V6.99984C2.73171 6.26317 2.12049 5.6665 1.36585 5.6665C0.61122 5.6665 0 6.26317 0 6.99984V14.0598C0 19.5498 4.55854 23.9998 10.1824 23.9998H17.8176C23.4415 23.9998 28 19.5498 28 14.0598V6.99984C28 6.26317 27.3888 5.6665 26.6342 5.6665C25.8795 5.6665 25.2683 6.26317 25.2683 6.99984Z" fill="#FEBE08"/>
<path d="M17.7565 20.6667H10.2443C6.4725 20.6667 3.41504 17.682 3.41504 14V6.66667C3.41504 2.98467 6.4725 0 10.2443 0H17.7565C21.5283 0 24.5858 2.98467 24.5858 6.66667V14C24.5858 17.682 21.5283 20.6667 17.7565 20.6667Z" fill="#FEBE08"/>
</svg>
