<svg width="48" height="40" viewBox="0 0 48 40" fill="none" xmlns="http://www.w3.org/2000/svg">
<path d="M36.2957 10.3792C35.4137 10.1811 34.6817 9.62097 34.2937 8.84478C31.0657 2.39721 24.0918 -1.05363 16.9438 0.286697C10.6739 1.44898 5.60595 6.44619 4.33196 12.7237C3.95197 14.5902 3.89597 16.4706 4.16596 18.3171C4.33196 19.4514 4.04996 20.4636 3.39397 21.0938C1.20799 23.1803 0.00199998 25.9869 0 28.9977C0 35.2712 4.72796 40.0004 10.9999 40.0004H32.4717C40.7336 40.0004 47.6936 33.5308 47.9896 25.5749C48.2576 18.3491 43.3396 11.9575 36.2957 10.3772L36.2957 10.3792ZM32.4717 38.0019H10.9999C5.78595 38.0019 1.99998 34.215 1.99998 29.0017C2.00198 26.5431 2.98797 24.2485 4.77796 22.5401C5.90795 21.4578 6.40794 19.8155 6.14794 18.029C5.91195 16.4126 5.96194 14.7622 6.29594 13.1238C7.40793 7.63849 11.8359 3.26942 17.3118 2.25318C18.2078 2.08714 19.1018 2.00712 19.9818 2.00712C25.2558 2.00712 30.0877 4.90782 32.5077 9.741C33.1677 11.0573 34.3877 12.0015 35.8617 12.3336C41.9656 13.702 46.2256 19.2393 45.9916 25.5028C45.7376 32.3945 39.6736 38.0019 32.4737 38.0019L32.4717 38.0019ZM30.5337 20.2996C30.9237 20.6897 30.9237 21.3238 30.5337 21.7139C30.3377 21.91 30.0817 22.006 29.8257 22.006C29.5697 22.006 29.3137 21.908 29.1177 21.7139L23.9958 16.5907V31.0082C23.9958 31.5603 23.5478 32.0084 22.9958 32.0084C22.4438 32.0084 21.9958 31.5603 21.9958 31.0082V16.5907L16.8738 21.7139C16.4838 22.104 15.8499 22.104 15.4599 21.7139C15.0699 21.3238 15.0699 20.6897 15.4599 20.2996L20.8738 14.8842C21.3598 14.4001 21.9778 14.1661 22.6098 14.0821C22.7278 14.032 22.8578 14.004 22.9938 14.004C23.1298 14.004 23.2598 14.032 23.3778 14.0821C24.0118 14.1641 24.6298 14.3981 25.1158 14.8842L30.5297 20.2996H30.5337Z" fill="#FEBE08"/>
</svg>
