<svg id="comment_1_" data-name="comment (1)" xmlns="http://www.w3.org/2000/svg" width="23.957" height="23.956" viewBox="0 0 23.957 23.956">
  <path id="Path_1429" data-name="Path 1429" d="M23.956,11.215A11.99,11.99,0,1,0,11.995,23.932h6.97a4.993,4.993,0,0,0,4.991-4.986Zm-2,7.731a2.993,2.993,0,0,1-2.995,2.991h-6.97A10.027,10.027,0,0,1,4.533,18.6a9.882,9.882,0,0,1-2.471-7.792A10.019,10.019,0,0,1,10.7,2.076,10.555,10.555,0,0,1,12,1.994a9.909,9.909,0,0,1,6.367,2.293A10.009,10.009,0,0,1,21.96,11.31Z" transform="translate(0.001 0.024)" fill="#fff"/>
  <path id="Path_1430" data-name="Path 1430" d="M8,9h4a1,1,0,0,0,0-2H8A1,1,0,0,0,8,9Z" transform="translate(-0.016 0.002)" fill="#fff"/>
  <path id="Path_1431" data-name="Path 1431" d="M16,11H8a1,1,0,0,0,0,2h8a1,1,0,0,0,0-2Z" transform="translate(-0.021 -0.01)" fill="#fff"/>
  <path id="Path_1432" data-name="Path 1432" d="M16,15H8a1,1,0,0,0,0,2h8a1,1,0,0,0,0-2Z" transform="translate(-0.021 -0.022)" fill="#fff"/>
</svg>
