<svg width="32" height="32" viewBox="0 0 32 32" fill="none" xmlns="http://www.w3.org/2000/svg">
<path d="M16 1.27156e-06C7.16342 1.27156e-06 0 7.16342 0 16C0 24.8365 7.16342 31.9999 16 31.9999C24.8365 31.9999 31.9999 24.8365 31.9999 16C31.9903 7.16738 24.8325 0.00955324 16 1.27156e-06ZM20.2959 9.33331H11.704C12.8357 7.099 14.2824 5.03886 16 3.21599C17.7181 5.03835 19.165 7.09859 20.2959 9.33331ZM21.3626 12C21.7724 13.2942 21.9863 14.6424 21.9973 16C21.9863 17.3575 21.7724 18.7057 21.3626 19.9999H10.6346C10.2248 18.7057 10.0109 17.3575 9.99997 16C10.0109 14.6424 10.2248 13.2942 10.6346 12L21.3626 12ZM12.5333 3.14132C10.9969 5.02102 9.72875 7.10491 8.76531 9.3333L4.47065 9.33331C6.23845 6.28856 9.13551 4.06366 12.5333 3.14132ZM2.66666 16C2.66666 14.6419 2.87407 13.293 3.28169 11.9988L7.86664 12C7.52099 13.3055 7.34179 14.6495 7.33331 16C7.34179 17.3504 7.52099 18.6944 7.86664 19.9999L3.28132 19.9999C2.87382 18.7057 2.66653 17.3568 2.66666 16ZM4.47065 22.6666H8.76531C9.72875 24.895 10.9969 26.9789 12.5333 28.8586C9.13552 27.9362 6.23846 25.7114 4.47065 22.6666ZM11.704 22.6666H20.2959C19.1643 24.9009 17.7175 26.961 16 28.7839C14.2818 26.9616 12.8349 24.9013 11.704 22.6666ZM19.4733 28.8586C21.0074 26.9785 22.2732 24.8946 23.2346 22.6666H27.5293C25.763 25.71 22.8686 27.9347 19.4733 28.8586ZM29.3332 16C29.3332 17.358 29.1258 18.7069 28.7182 20.0011L24.1333 19.9999C24.4789 18.6944 24.6581 17.3504 24.6666 16C24.6581 14.6495 24.4789 13.3055 24.1333 12H28.7159C29.1243 13.294 29.3325 14.643 29.3332 16ZM23.2346 9.33331C22.2732 7.10529 21.0074 5.02143 19.4733 3.14133C22.8686 4.06523 25.763 6.28994 27.5292 9.33331L23.2346 9.33331Z" fill="white"/>
</svg>
