<svg id="react" xmlns="http://www.w3.org/2000/svg" width="28" height="24" viewBox="0 0 28 24">
  <rect id="Rectangle_513" data-name="Rectangle 513" width="27.928" height="24" transform="translate(0.072)" fill="none"/>
  <g id="heart-o">
    <path id="Path_37" data-name="Path 37" d="M25.933,7.294A6.793,6.793,0,0,0,25.6,5.065a4.351,4.351,0,0,0-.857-1.535,4.115,4.115,0,0,0-1.27-.927,5.626,5.626,0,0,0-1.465-.483,8.913,8.913,0,0,0-1.527-.125,4.483,4.483,0,0,0-1.745.4,7.967,7.967,0,0,0-1.722,1q-.787.6-1.348,1.122a12.061,12.061,0,0,0-.935.958,1.022,1.022,0,0,1-1.527,0,12.061,12.061,0,0,0-.935-.958Q11.7,3.99,10.917,3.39a7.967,7.967,0,0,0-1.722-1,4.483,4.483,0,0,0-1.745-.4,8.913,8.913,0,0,0-1.527.125A5.626,5.626,0,0,0,4.457,2.6a4.115,4.115,0,0,0-1.27.927A4.351,4.351,0,0,0,2.33,5.065a6.793,6.793,0,0,0-.335,2.229q0,2.618,2.914,5.533l9.055,8.727L23,12.842Q25.933,9.912,25.933,7.294Zm1.995,0q0,3.444-3.569,7.013L14.65,23.658a.978.978,0,0,1-1.371,0L3.553,14.276a5.144,5.144,0,0,1-.429-.405q-.273-.281-.865-1.021A13.791,13.791,0,0,1,1.2,11.33,9.439,9.439,0,0,1,.366,9.444,6.827,6.827,0,0,1,0,7.294,7.148,7.148,0,0,1,1.979,1.932,7.5,7.5,0,0,1,7.449,0,6.212,6.212,0,0,1,9.421.335a7.979,7.979,0,0,1,1.87.9q.865.569,1.488,1.068a14.359,14.359,0,0,1,1.184,1.06,14.359,14.359,0,0,1,1.184-1.06q.623-.5,1.488-1.068a7.979,7.979,0,0,1,1.87-.9A6.212,6.212,0,0,1,20.478,0a7.5,7.5,0,0,1,5.47,1.932A7.148,7.148,0,0,1,27.928,7.294Z" fill="#fff"/>
  </g>
</svg>
