<svg width="24" height="24" viewBox="0 0 24 24" fill="none" xmlns="http://www.w3.org/2000/svg">
<path d="M23 17.001C23 18.4306 21.9993 19.9099 19.9814 21.0869C17.9881 22.2497 15.1685 23.001 12 23.001C8.83152 23.001 6.0119 22.2497 4.01859 21.0869C2.00073 19.9099 1 18.4306 1 17.001C1 15.5713 2.00073 14.0921 4.01859 12.915C6.0119 11.7522 8.83152 11.001 12 11.001C15.1685 11.001 17.9881 11.7522 19.9814 12.915C21.9993 14.0921 23 15.5713 23 17.001Z" stroke="white" stroke-width="2"/>
<path d="M8.53031 18.1234L8.5301 18.1231C6.7656 15.8954 5.44192 13.9533 4.56049 12.307C3.67613 10.6552 3.25053 9.32589 3.25049 8.31682C3.25634 3.88175 7.1517 0.255058 12.0005 0.25C16.8493 0.255057 20.7447 3.88184 20.7505 8.31698C20.7504 9.32603 20.3248 10.6553 19.4405 12.307C18.5591 13.9533 17.2354 15.8954 15.4709 18.1231L15.4707 18.1234C14.6662 19.1418 13.378 19.75 12.0005 19.75C10.623 19.75 9.33473 19.1418 8.53031 18.1234ZM8.14364 8.29832C8.14364 10.2955 9.88934 11.8816 12.0005 11.8816C14.1116 11.8816 15.8573 10.2955 15.8573 8.29832C15.8573 6.30111 14.1116 4.71499 12.0005 4.71499C9.88934 4.71499 8.14364 6.30111 8.14364 8.29832Z" fill="#161616" stroke="#161616" stroke-width="0.5"/>
<path d="M9.52996 16.8354L9.52912 16.8343C7.97642 14.8495 6.82957 13.1415 6.07526 11.715C5.30964 10.2672 5.00066 9.20537 5.00049 8.48559C5.0054 4.96683 8.07326 2.00456 12.0005 2C15.9277 2.00456 18.9955 4.96679 19.0005 8.48552C19.0003 9.20529 18.6914 10.2671 17.9257 11.715C17.1714 13.1415 16.0246 14.8495 14.4719 16.8343L14.471 16.8354C13.9102 17.5543 12.9963 18 12.0005 18C11.0047 18 10.0908 17.5543 9.52996 16.8354Z" fill="#161616" stroke="white" stroke-width="2"/>
<circle cx="11.9995" cy="8.00098" r="2" fill="white"/>
</svg>
