<svg width="32" height="32" viewBox="0 0 32 32" fill="none" xmlns="http://www.w3.org/2000/svg">
<path d="M15.0742 19.8358C14.3488 19.8358 13.7607 20.4279 13.7607 21.1582V25.1254C13.7607 27.3164 11.9964 29.0925 9.82004 29.0925H6.56771C4.39136 29.0925 2.62708 27.3164 2.62708 25.1254V6.61194C2.62708 4.42093 4.39136 2.64477 6.56771 2.64478H9.82004C11.9964 2.64478 13.7607 4.42094 13.7607 6.61194V10.5791C13.7607 11.3094 14.3488 11.9015 15.0742 11.9015C15.7997 11.9015 16.3877 11.3094 16.3877 10.5791V6.61194C16.3834 2.96208 13.4455 0.00437107 9.82004 0H6.56771C2.94226 0.00437107 0.00434245 2.96208 0 6.61194V25.1254C0.00434371 28.7752 2.94227 31.7329 6.56771 31.7373H9.82004C13.4455 31.7329 16.3834 28.7752 16.3877 25.1254V21.1582C16.3877 20.4279 15.7997 19.8358 15.0742 19.8358Z" fill="black"/>
<path d="M30.5848 13.0505L24.5609 6.95704C24.048 6.43801 23.2164 6.43801 22.7034 6.9569C22.1904 7.47579 22.1904 8.31708 22.7034 8.83598L28.3031 14.5001L8.42926 14.54C7.70382 14.54 7.11572 15.1349 7.11572 15.8687C7.11572 16.6025 7.70382 17.1974 8.42926 17.1974L28.3793 17.1575L22.7009 22.9015C22.1878 23.4203 22.1878 24.2616 22.7008 24.7805C23.2137 25.2993 24.0454 25.2993 24.5584 24.7804L30.5821 18.6869C32.1212 17.131 32.1224 14.6078 30.5848 13.0505Z" fill="black"/>
</svg>
