<svg width="26" height="24" viewBox="0 0 26 24" fill="none" xmlns="http://www.w3.org/2000/svg">
<path d="M20.5833 0H5.41667C2.42661 0.00360644 0.00358244 2.44358 0 5.45454V18.5455C0.00358089 21.5564 2.42661 23.9964 5.41667 24L20.5833 24C23.5734 23.9964 25.9964 21.5564 26 18.5455V5.45455C25.9964 2.44358 23.5734 0.00360692 20.5833 0ZM5.41667 2.18182H20.5833C21.9104 2.18445 23.1026 2.99935 23.595 4.24036L15.2988 12.5956C14.0277 13.8705 11.9723 13.8705 10.7012 12.5956L2.405 4.24036C2.89736 2.99935 4.08956 2.18445 5.41667 2.18182ZM20.5833 21.8182H5.41667C3.62174 21.8182 2.16667 20.3529 2.16667 18.5455V7.09091L9.16933 14.1382C11.2865 16.2648 14.7135 16.2648 16.8307 14.1382L23.8333 7.09091V18.5455C23.8333 20.3529 22.3783 21.8182 20.5833 21.8182Z" fill="white"/>
</svg>
