<svg width="292" height="200" viewBox="0 0 292 200" fill="none" xmlns="http://www.w3.org/2000/svg">
<g filter="url(#filter0_d_1_12985)">
<path d="M2 18C2 9.16345 9.16344 2 18 2H274C282.837 2 290 9.16344 290 18V182C290 190.837 282.837 198 274 198H18C9.16345 198 2 190.837 2 182V18Z" fill="#707070"/>
<path d="M2.5 18C2.5 9.43959 9.43959 2.5 18 2.5H274C282.56 2.5 289.5 9.43959 289.5 18V182C289.5 190.56 282.56 197.5 274 197.5H18C9.43959 197.5 2.5 190.56 2.5 182V18Z" stroke="#FEBE08"/>
</g>
<rect x="55.509" y="5.68433" width="111.944" height="58.7791" fill="#161616"/>
<rect x="55.4409" y="5.59351" width="111.944" height="6.81412" fill="#FEBE08"/>
<rect x="58.0393" y="15.1704" width="107.318" height="46.1945" fill="#2B2A2D"/>
<circle cx="66.0693" cy="8.98315" r="1.12719" fill="white"/>
<circle cx="70.3442" cy="8.98315" r="1.12719" fill="white"/>
<circle cx="61.7832" cy="8.98315" r="1.12719" fill="white"/>
<circle cx="76.3356" cy="47.925" r="1.98043" fill="white"/>
<circle cx="93.8139" cy="42.9179" r="1.98043" fill="#E4E4E4"/>
<circle cx="111.293" cy="47.925" r="1.98043" fill="white"/>
<circle cx="128.771" cy="19.2473" r="1.98043" fill="white"/>
<circle cx="146.249" cy="19.0036" r="1.98043" fill="white"/>
<path d="M111.344 48.5481L93.8082 43.1L76.5127 48.3687L76.1167 47.8403L93.8082 42.2752L111.26 47.6609L128.603 21.6646L128.673 21.6362L146.166 21.6055L146.413 22.218L128.989 22.2207L111.344 48.5481Z" fill="white"/>
<rect x="80.8237" y="79.5205" width="105.347" height="55.3146" fill="#161616"/>
<rect x="80.7598" y="79.5405" width="105.347" height="6.4125" fill="#FEBE08"/>
<rect x="83.0444" y="88.0603" width="101.154" height="43.9411" fill="#2B2A2D"/>
<circle cx="90.7729" cy="82.728" r="1.06075" fill="white"/>
<circle cx="94.7961" cy="82.728" r="1.06075" fill="white"/>
<circle cx="86.7397" cy="82.728" r="1.06075" fill="white"/>
<rect x="131.392" y="27.1396" width="124.959" height="65.6127" fill="#161616"/>
<rect x="131.315" y="27.0383" width="124.959" height="7.60633" fill="#FEBE08"/>
<rect x="134.197" y="36.7856" width="119.148" height="52.1095" fill="#2B2A2D"/>
<circle cx="143.287" cy="30.822" r="1.25823" fill="white"/>
<circle cx="148.059" cy="30.822" r="1.25823" fill="white"/>
<circle cx="138.502" cy="30.822" r="1.25823" fill="white"/>
<path d="M194.678 48.1997C194.166 48.2676 193.783 48.7045 193.783 49.2212C193.783 49.738 194.166 50.1748 194.678 50.2427H236.869C237.382 50.1748 237.764 49.738 237.764 49.2212C237.764 48.7045 237.382 48.2676 236.869 48.1997H194.678Z" fill="white"/>
<path d="M194.678 72.1873C194.166 72.2552 193.783 72.692 193.783 73.2088C193.783 73.7255 194.166 74.1624 194.678 74.2303H236.869C237.382 74.1624 237.764 73.7255 237.764 73.2088C237.764 72.692 237.382 72.2552 236.869 72.1873H194.678Z" fill="white"/>
<path d="M194.695 54.302C194.183 54.3699 193.8 54.8068 193.8 55.3235C193.8 55.8403 194.183 56.2771 194.695 56.3451H212.85C213.363 56.2771 213.745 55.8403 213.745 55.3235C213.745 54.8068 213.363 54.3699 212.85 54.302H194.695Z" fill="white"/>
<path d="M194.678 60.1187C194.166 60.1866 193.783 60.6234 193.783 61.1402C193.783 61.6569 194.166 62.0938 194.678 62.1617H236.869C237.381 62.0937 237.764 61.6569 237.764 61.1402C237.764 60.6235 237.381 60.1866 236.869 60.1187H194.678Z" fill="white"/>
<path d="M194.695 66.2209C194.183 66.2889 193.8 66.7257 193.8 67.2425C193.8 67.7592 194.183 68.196 194.695 68.264H212.85C213.363 68.196 213.745 67.7592 213.745 67.2425C213.745 66.7257 213.363 66.2889 212.85 66.2209H194.695Z" fill="white"/>
<path d="M170.147 73.1155C170.684 73.1158 171.119 72.6807 171.119 72.1437C171.12 71.6067 170.685 71.1711 170.148 71.1709L150.422 71.1709C149.885 71.1707 149.45 71.6057 149.449 72.1427C149.449 72.6797 149.884 73.1153 150.421 73.1155H170.147Z" fill="white"/>
<path d="M170.147 67.4122C170.684 67.4122 171.119 66.9769 171.119 66.4398C171.119 65.9029 170.684 65.4676 170.147 65.4676L150.422 65.4675C149.885 65.4673 149.45 65.9024 149.449 66.4394C149.449 66.9764 149.884 67.4119 150.421 67.4122H170.147Z" fill="white"/>
<path d="M160.285 49.3037C163.665 49.3037 166.405 52.0439 166.405 55.4241C166.405 58.8043 163.665 61.5444 160.285 61.5444C156.904 61.5444 154.164 58.8043 154.164 55.4241C154.168 52.0454 156.906 49.3075 160.285 49.3037Z" fill="#FEBE08"/>
<circle cx="110.833" cy="100.824" r="2.39462" fill="white"/>
<path d="M149.286 98.9617C150.183 98.9617 150.91 99.6888 150.91 100.586C150.91 101.483 150.183 102.21 149.286 102.21H124.101C123.204 102.21 122.477 101.483 122.477 100.586C122.477 99.6888 123.204 98.9617 124.101 98.9617H149.286ZM149.286 98.564H124.101C122.984 98.564 122.079 99.4691 122.079 100.586C122.079 101.702 122.984 102.607 124.101 102.607H149.286C150.402 102.607 151.307 101.702 151.307 100.586C151.307 99.4691 150.402 98.564 149.286 98.564Z" fill="white"/>
<path d="M139.355 102.607H120.396C119.279 102.607 118.374 101.702 118.374 100.586C118.374 99.4691 119.279 98.564 120.396 98.564L139.355 98.564C140.471 98.564 141.376 99.4691 141.376 100.586C141.376 101.702 140.471 102.607 139.355 102.607Z" fill="white"/>
<circle cx="110.833" cy="110.724" r="2.39462" fill="white"/>
<path d="M149.286 108.861C150.183 108.861 150.91 109.588 150.91 110.485C150.91 111.382 150.183 112.109 149.286 112.109H124.101C123.204 112.109 122.477 111.382 122.477 110.485C122.477 109.588 123.204 108.861 124.101 108.861H149.286ZM149.286 108.464H124.101C122.984 108.464 122.079 109.369 122.079 110.485C122.079 111.602 122.984 112.507 124.101 112.507L149.286 112.507C150.402 112.507 151.307 111.602 151.307 110.485C151.307 109.369 150.402 108.464 149.286 108.464Z" fill="white"/>
<path d="M146.511 112.507H120.392C119.276 112.507 118.371 111.602 118.371 110.485C118.371 109.369 119.276 108.463 120.392 108.463H146.511C147.627 108.463 148.533 109.369 148.533 110.485C148.533 111.602 147.627 112.507 146.511 112.507Z" fill="white"/>
<circle cx="110.833" cy="120.623" r="2.39462" fill="white"/>
<path d="M149.286 118.761C150.183 118.761 150.91 119.488 150.91 120.385C150.91 121.282 150.183 122.009 149.286 122.009H124.101C123.204 122.009 122.477 121.282 122.477 120.385C122.477 119.488 123.204 118.761 124.101 118.761H149.286ZM149.286 118.363H124.101C122.984 118.363 122.079 119.268 122.079 120.385C122.079 121.501 122.984 122.406 124.101 122.406L149.286 122.406C150.402 122.406 151.307 121.501 151.307 120.385C151.307 119.268 150.402 118.363 149.286 118.363Z" fill="#E4E4E4"/>
<path d="M149.377 122.407H120.391C119.274 122.407 118.369 121.502 118.369 120.385C118.369 119.268 119.274 118.363 120.391 118.363L149.377 118.363C150.494 118.363 151.399 119.268 151.399 120.385C151.399 121.502 150.494 122.407 149.377 122.407Z" fill="white"/>
<path d="M224.889 124.954C225.481 124.249 225.731 123.318 225.571 122.411C225.41 121.504 224.856 120.715 224.058 120.256L226.126 109.394L220.822 111.604L219.672 121.58C218.974 123.003 219.451 124.724 220.782 125.585C222.113 126.445 223.877 126.175 224.889 124.954Z" fill="#FFB7B7"/>
<path d="M251.047 191.278L246.556 191.278L244.42 173.955L251.048 173.956L251.047 191.278Z" fill="#FFB7B7"/>
<path d="M252.193 195.632L237.712 195.631V195.448C237.712 192.335 240.235 189.812 243.348 189.812L252.193 189.812L252.193 195.632Z" fill="#161616"/>
<path d="M226.788 191.278L222.297 191.278L220.16 173.955L226.789 173.956L226.788 191.278Z" fill="#FFB7B7"/>
<path d="M226.843 195.632L212.362 195.631V195.448C212.362 192.335 214.885 189.812 217.998 189.812L226.843 189.812L226.843 195.632Z" fill="#161616"/>
<path d="M226.136 118.115L221.74 128.243L218.114 186.451L227.272 186.085L229.773 158.337L237.489 133.622L241.925 161.175L243.757 185.352L251.334 185.68L254.354 118.115H226.136Z" fill="#161616"/>
<path d="M248.11 68.575L235.369 68.8936L227.889 72.7336L227.478 101.064L222.813 120.624C222.813 120.624 251.962 122.63 255.991 119.699L251.229 97.3537L257.616 73.2045L248.11 68.575Z" fill="#E6E6E6"/>
<path d="M229.523 73.1785L228.163 72.7356C228.163 72.7356 223.845 75.5064 224.256 82.2047C224.256 82.2047 224.094 85.6709 224.249 87.9778C224.426 90.6237 219.12 116.917 219.12 116.917H226.813L230.11 93.1063L229.523 73.1785Z" fill="#E6E6E6"/>
<path d="M257.417 125.319C256.824 124.614 256.575 123.682 256.735 122.776C256.895 121.869 257.449 121.08 258.247 120.62L256.179 109.758L261.483 111.968L262.634 121.945C263.332 123.368 262.855 125.088 261.524 125.949C260.193 126.81 258.428 126.539 257.417 125.319Z" fill="#FFB7B7"/>
<path d="M255.699 73.5432L257.06 73.1003C257.06 73.1003 261.377 75.8709 260.966 82.5694C260.966 82.5694 261.128 86.0356 260.974 88.3425C260.797 90.9884 263.172 117.282 263.172 117.282H255.479L252.182 93.471L255.699 73.5432Z" fill="#E6E6E6"/>
<path d="M251.237 56.8763C251.237 61.7541 247.283 65.7083 242.405 65.7083C237.527 65.7083 233.573 61.754 233.573 56.8762C233.573 51.9984 237.527 48.0442 242.405 48.0442C247.271 48.0321 251.225 51.9666 251.237 56.8322C251.237 56.8469 251.237 56.8616 251.237 56.8763Z" fill="#FFB7B7"/>
<path d="M233.603 45.0327C234.637 42.8079 236.639 43.2478 238.39 44.0019C240.608 43.51 242.717 42.0375 245.106 42.9083C247.459 46.3313 255.361 45.3242 253.68 50.8968C253.678 52.2321 256.193 51.4549 255.754 53.6418C257.086 57.8505 250.945 65.8212 247.42 64.1428C248.291 62.5448 250.283 58.9155 247.262 58.5555C240.764 64.6019 246.592 47.0419 238.427 52.1486C235.723 54.6227 232.022 47.5073 233.603 45.0327Z" fill="#161616"/>
<path d="M57.1421 191.117L61.7989 191.117L62.6631 173.059L57.1411 173.156L57.1421 191.117Z" fill="#FFB6B6"/>
<path d="M55.9509 189.597L65.1218 189.596C68.3492 189.596 70.9662 192.213 70.9666 195.44V195.631L55.9512 195.631L55.9509 189.597Z" fill="#161616"/>
<path d="M38.5616 191.117L43.2184 191.117L44.1414 173.059L38.5605 173.156L38.5616 191.117Z" fill="#FFB6B6"/>
<path d="M37.3738 189.597L46.5447 189.596C49.7721 189.596 52.389 192.213 52.3895 195.44V195.631L37.3741 195.631L37.3738 189.597Z" fill="#161616"/>
<path d="M83.6152 114.125C83.5777 113.033 83.0586 112.014 82.1973 111.341C81.3361 110.669 80.2213 110.413 79.1529 110.641L72.3536 99.4209L69.4312 105.581L76.3359 115.291C76.8503 117.1 78.6364 118.239 80.4935 117.941C82.3506 117.644 83.6917 116.004 83.6152 114.125Z" fill="#FFB6B6"/>
<path d="M27.1077 125.819C27.75 124.935 27.9678 123.812 27.7025 122.752C27.4372 121.692 26.7161 120.804 25.7332 120.327L27.2761 107.299L21.1827 110.356L20.6517 122.26C19.9441 124.003 20.6518 125.999 22.2989 126.907C23.946 127.815 26.0119 127.348 27.1077 125.819Z" fill="#FFB6B6"/>
<path d="M60.1177 112.291L63.4155 114.245C63.4155 114.245 66.095 115.95 65.1939 127.814C64.2928 139.678 63.2161 187.211 63.2161 187.211H57.3705L47.9034 130.431L44.4491 187.826L38.296 187.518C38.296 187.518 25.7247 122.174 31.1643 115.082L60.1177 112.291Z" fill="#161616"/>
<path d="M29.1743 70.743C29.1743 70.743 45.2111 65.5875 58.15 70.3942L57.0907 95.3522L65.0719 114.82C65.0719 114.82 39.6987 124.663 31.2431 116.391L33.7092 96.8904L29.1743 70.743Z" fill="#E6E6E6"/>
<path d="M53.5928 73.3455L56.9534 70.4143C56.9534 70.4143 59.1951 70.3878 61.1242 73.8366C63.0533 77.2854 66.5483 88.4177 66.5483 88.4177L77.7374 107.371L72.8152 110.755L55.0693 85.9364L53.5928 73.3455Z" fill="#E6E6E6"/>
<path d="M29.7691 71.9726L29.9983 70.4089C29.9983 70.4089 23.7498 70.8712 23.2212 76.892C22.6927 82.9128 20.76 116.887 20.76 116.887L26.9407 118.117L33.0892 83.2482L29.7691 71.9726Z" fill="#E6E6E6"/>
<path d="M51.4313 61.9202L32.6847 65.6116C31.8816 65.7689 31.1028 65.2463 30.9438 64.4436L29.3526 56.363C28.175 50.3831 32.0682 44.5807 38.0482 43.4031C44.0282 42.2256 49.8306 46.1187 51.0082 52.0988L52.5993 60.1792C52.7566 60.9823 52.234 61.7611 51.4313 61.9202Z" fill="#161616"/>
<circle cx="42.6828" cy="55.1921" r="8.09099" fill="#FFB6B6"/>
<path d="M53.7287 52.4102L42.2656 54.6675L41.824 53.0448L41.5603 54.8063L39.7953 55.1539L38.92 51.938L38.3975 55.4292L34.9821 56.1017L34.9503 55.9401C34.0245 51.2108 37.1017 46.6246 41.8288 45.6882L43.445 45.37C48.1743 44.4442 52.7605 47.5214 53.6969 52.2486L53.7287 52.4102Z" fill="#161616"/>
<path d="M44.187 64.8944C44.1007 64.9113 44.0131 64.9207 43.9252 64.9224L35.2397 65.0943L32.5081 51.2218L41.748 49.4023L41.5717 49.7141C39.1199 54.0528 42.703 59.5996 45.057 62.5198C45.4105 62.9559 45.4827 63.556 45.2427 64.0636C45.0445 64.4938 44.6519 64.8029 44.187 64.8944Z" fill="#161616"/>
<defs>
<filter id="filter0_d_1_12985" x="0" y="0" width="292" height="200" filterUnits="userSpaceOnUse" color-interpolation-filters="sRGB">
<feFlood flood-opacity="0" result="BackgroundImageFix"/>
<feColorMatrix in="SourceAlpha" type="matrix" values="0 0 0 0 0 0 0 0 0 0 0 0 0 0 0 0 0 0 127 0" result="hardAlpha"/>
<feOffset/>
<feGaussianBlur stdDeviation="1"/>
<feComposite in2="hardAlpha" operator="out"/>
<feColorMatrix type="matrix" values="0 0 0 0 0.0862745 0 0 0 0 0.0862745 0 0 0 0 0.0862745 0 0 0 0.160784 0"/>
<feBlend mode="normal" in2="BackgroundImageFix" result="effect1_dropShadow_1_12985"/>
<feBlend mode="normal" in="SourceGraphic" in2="effect1_dropShadow_1_12985" result="shape"/>
</filter>
</defs>
</svg>
