<svg width="25" height="24" viewBox="0 0 25 24" fill="none" xmlns="http://www.w3.org/2000/svg">
<path d="M22.1738 1.81693L21.1238 0.907217C19.9138 -0.302405 17.9538 -0.302405 16.7438 0.907217C16.7138 0.937207 14.8638 3.34645 14.8638 3.34645C13.7238 4.54608 13.7238 6.43549 14.8638 7.62512L16.0238 9.08466C14.5638 12.3936 12.2938 14.6729 9.09385 16.0325L7.63385 14.8629C6.44385 13.7132 4.54385 13.7132 3.35385 14.8629C3.35385 14.8629 0.943849 16.7123 0.913849 16.7423C-0.296151 17.9519 -0.296151 19.9113 0.863849 21.0709L1.86385 22.2206C3.01385 23.3702 4.56385 24 6.24385 24C13.8838 24 24.0038 13.8732 24.0038 6.24555C24.0038 4.57607 23.3738 3.01656 22.1738 1.82693L22.1738 1.81693ZM6.24385 21.9906C5.10385 21.9906 4.05385 21.5708 3.33385 20.841L2.33385 19.6913C1.92385 19.2815 1.90385 18.6117 2.29385 18.1818C2.29385 18.1818 4.68385 16.3424 4.71385 16.3124C5.12385 15.9025 5.84385 15.9025 6.26385 16.3124C6.29385 16.3424 8.30385 17.9519 8.30385 17.9519C8.58385 18.1718 8.95385 18.2318 9.28385 18.1018C13.4238 16.5223 16.3938 13.5633 18.1038 9.29459C18.2338 8.9647 18.1838 8.58482 17.9538 8.29491C17.9538 8.29491 16.3438 6.27554 16.3238 6.25554C15.8938 5.82568 15.8938 5.13589 16.3238 4.70603C16.3538 4.67604 18.1938 2.28678 18.1938 2.28678C18.6238 1.89691 19.2938 1.9069 19.7538 2.36676L20.8038 3.27647C21.5738 4.04623 22.0038 5.09591 22.0038 6.23555C22.0038 13.1934 12.2338 21.9906 6.24385 21.9906Z" fill="white"/>
</svg>
