<svg width="292" height="200" viewBox="0 0 292 200" fill="none" xmlns="http://www.w3.org/2000/svg">
<g filter="url(#filter0_d_1_12994)">
<path d="M2 18C2 9.16345 9.16344 2 18 2H274C282.837 2 290 9.16344 290 18V182C290 190.837 282.837 198 274 198H18C9.16345 198 2 190.837 2 182V18Z" fill="#707070"/>
<path d="M2.5 18C2.5 9.43959 9.43959 2.5 18 2.5H274C282.56 2.5 289.5 9.43959 289.5 18V182C289.5 190.56 282.56 197.5 274 197.5H18C9.43959 197.5 2.5 190.56 2.5 182V18Z" stroke="#FEBE08"/>
</g>
<path d="M34.0723 129.418V23.654C34.0733 22.6958 34.8498 21.9193 35.808 21.9182H187.514C188.472 21.9193 189.249 22.6958 189.25 23.654V129.418C189.249 130.376 188.472 131.153 187.514 131.154H35.808C34.8498 131.153 34.0733 130.376 34.0723 129.418Z" fill="#2B2A2D"/>
<path d="M35.8082 132.258C34.242 132.254 32.9731 130.986 32.9688 129.42V23.6541C32.9725 22.088 34.2408 20.8191 35.8069 20.8147H187.514C189.08 20.8185 190.349 22.0868 190.353 23.6529V129.418C190.35 130.985 189.081 132.253 187.515 132.258H35.8082ZM35.1761 129.417C35.177 129.767 35.46 130.05 35.8094 130.051L187.514 130.051C187.863 130.049 188.145 129.766 188.146 129.417V23.6541C188.145 23.3052 187.862 23.0228 187.513 23.022L35.8082 23.022C35.4592 23.0235 35.1769 23.3064 35.1761 23.6553L35.1761 129.417Z" fill="#161616"/>
<path d="M162.597 46.6225C163.357 46.6224 163.973 47.2385 163.973 47.9986C163.973 48.7587 163.357 49.3749 162.597 49.3749L128.093 49.3747C127.333 49.3872 126.707 48.7812 126.695 48.0212C126.682 47.2612 127.288 46.635 128.048 46.6225C128.063 46.6222 128.078 46.6222 128.093 46.6225H162.597Z" fill="white"/>
<path d="M162.597 56.3498C163.357 56.3496 163.973 56.9658 163.973 57.7259C163.973 58.486 163.357 59.1022 162.597 59.1022L128.093 59.102C127.333 59.1145 126.707 58.5085 126.695 57.7485C126.682 56.9885 127.288 56.3622 128.048 56.3498C128.063 56.3495 128.078 56.3495 128.093 56.3498H162.597Z" fill="white"/>
<path d="M162.597 66.0774C163.357 66.0772 163.973 66.6934 163.973 67.4535C163.973 68.2136 163.357 68.8297 162.597 68.8297L128.093 68.8296C127.333 68.842 126.707 68.2361 126.695 67.4761C126.682 66.7161 127.288 66.0898 128.048 66.0774C128.063 66.0771 128.078 66.0771 128.093 66.0774H162.597Z" fill="white"/>
<path d="M140.611 81.115C140.611 78.5128 142.72 76.4033 145.323 76.4033C147.925 76.4033 150.034 78.5128 150.034 81.115C150.034 83.7171 147.925 85.8266 145.323 85.8266C142.72 85.8266 140.611 83.7171 140.611 81.115Z" fill="#FEBE08"/>
<path d="M143.463 80.6504H144.858V79.2561C144.857 78.9994 145.065 78.791 145.322 78.7905C145.578 78.7901 145.787 78.9979 145.787 79.2545V80.6504H147.181C147.438 80.6504 147.646 80.8585 147.646 81.1152C147.646 81.3719 147.438 81.58 147.181 81.58H145.787V82.9743C145.787 83.231 145.579 83.4391 145.322 83.4391C145.066 83.4391 144.858 83.231 144.858 82.9743V81.58H143.463C143.207 81.5805 142.998 81.3728 142.998 81.1161C142.997 80.8594 143.205 80.6509 143.462 80.6505L143.463 80.6504Z" fill="white"/>
<path d="M96.463 59.1367C96.4657 61.3376 96.0732 63.5211 95.3043 65.5832C94.955 66.5278 94.5266 67.4411 94.0237 68.3135C90.7323 74.0568 84.6189 77.5995 77.9993 77.5995C71.3797 77.5995 65.2663 74.0568 61.9749 68.3135C61.8112 68.0297 61.656 67.7418 61.5093 67.4495C58.0723 60.6318 59.1857 52.4019 64.3107 46.7426C69.4358 41.0832 77.5153 39.1617 84.6393 41.908C91.7634 44.6542 96.4627 51.5017 96.463 59.1367Z" fill="#707070"/>
<circle cx="78.9593" cy="58.724" r="3.52987" fill="#FEBE08"/>
<path d="M61.5095 67.4496C63.0648 65.7689 65.1439 63.1004 67.0938 65.0285C68.0724 65.9381 69.604 68.1918 71.0701 66.7184L82.5187 55.2697C82.9541 54.8398 83.5445 54.6036 84.1562 54.6146C84.768 54.6256 85.3495 54.8827 85.7692 55.3279L95.3043 65.5833C94.9551 66.5278 94.5267 67.4412 94.0237 68.3136H61.9753L61.5095 67.4496Z" fill="white"/>
<path d="M94.0324 110.635C93.5449 110.635 93.1497 111.03 93.1497 111.517C93.1497 112.005 93.5449 112.4 94.0324 112.4H103.296C103.784 112.4 104.179 112.005 104.179 111.517C104.179 111.03 103.784 110.635 103.296 110.635H94.0324Z" fill="#FEBE08"/>
<path d="M52.2978 97.6685C51.8103 97.6685 51.415 98.0637 51.415 98.5512C51.415 99.0388 51.8103 99.434 52.2978 99.434H103.701C104.189 99.434 104.584 99.0388 104.584 98.5512C104.584 98.0637 104.189 97.6685 103.701 97.6685H52.2978Z" fill="white"/>
<path d="M52.2978 104.152C51.8103 104.152 51.415 104.547 51.415 105.034C51.415 105.522 51.8103 105.917 52.2978 105.917H103.701C104.189 105.917 104.584 105.522 104.584 105.034C104.584 104.547 104.189 104.152 103.701 104.152L52.2978 104.152Z" fill="white"/>
<path d="M161.355 110.635C160.868 110.635 160.473 111.03 160.473 111.517C160.473 112.005 160.868 112.4 161.355 112.4H170.619C171.107 112.4 171.502 112.005 171.502 111.517C171.502 111.03 171.107 110.635 170.619 110.635H161.355Z" fill="#FEBE08"/>
<path d="M119.621 97.6685C119.133 97.6685 118.738 98.0637 118.738 98.5512C118.738 99.0388 119.133 99.434 119.621 99.434H171.024C171.512 99.434 171.907 99.0388 171.907 98.5512C171.907 98.0637 171.512 97.6685 171.024 97.6685H119.621Z" fill="white"/>
<path d="M119.621 104.152C119.133 104.152 118.738 104.547 118.738 105.034C118.738 105.522 119.133 105.917 119.621 105.917H171.024C171.512 105.917 171.907 105.522 171.907 105.034C171.907 104.547 171.512 104.152 171.024 104.152L119.621 104.152Z" fill="white"/>
<path d="M202.072 95.0208L206.658 79.6913L197.952 77.5557L194.748 93.1679L189.27 115.067C187.268 116.107 186.467 118.557 187.467 120.578C188.467 122.6 190.901 123.449 192.942 122.489C194.982 121.529 195.879 119.112 194.959 117.053L195.044 117.081L202.072 95.0208Z" fill="#FFB7B7"/>
<path d="M237.146 95.0328L236.785 79.0361L227.845 79.6872L229.608 95.5271L231.145 118.049C229.562 119.655 229.554 122.232 231.128 123.847C232.703 125.462 235.28 125.52 236.925 123.978C238.571 122.435 238.679 119.86 237.169 118.184L237.258 118.185L237.146 95.0328Z" fill="#FFB7B7"/>
<path d="M198.656 190.393H193.163L191.445 169.203L198.657 169.203L198.656 190.393Z" fill="#FFB7B7"/>
<path d="M200.057 195.719L182.344 195.718V195.494C182.344 191.686 185.431 188.599 189.238 188.599L200.058 188.6L200.057 195.719Z" fill="#161616"/>
<path d="M228.231 190.393H222.738L220.124 169.203L228.233 169.203L228.231 190.393Z" fill="#FFB7B7"/>
<path d="M229.632 195.719L211.918 195.718V195.494C211.918 191.686 215.005 188.599 218.813 188.599L229.632 188.6L229.632 195.719Z" fill="#161616"/>
<path d="M227.257 183.613C227.216 183.613 227.175 183.611 227.134 183.609L222.405 183.346C221.362 183.289 220.51 182.491 220.386 181.453L214.594 129.878C214.566 129.655 214.4 129.473 214.18 129.424C213.96 129.375 213.733 129.47 213.613 129.66L206.233 141.345C204.92 143.417 204.07 145.747 203.741 148.178L199.991 179.156C199.843 180.223 198.933 181.018 197.856 181.023L192.609 181.023C191.46 181.024 190.512 180.122 190.457 178.974L189.259 150.904C189.065 146.992 189.602 143.079 190.843 139.364L202.139 110.455L202.205 110.436L229.395 102.667L229.407 181.517C229.376 182.682 228.423 183.611 227.257 183.613Z" fill="#161616"/>
<path d="M223.348 64.981H208.894L198.216 70.1025L201.843 110.843L228.981 111.563L234.542 71.1471L223.348 64.981Z" fill="#E6E6E6"/>
<path d="M230.703 72.4396L234.542 71.147L241.188 86.5112L226.664 91.4807L230.703 72.4396Z" fill="#E6E6E6"/>
<path d="M203.663 71.8878L198.216 70.1023L189.939 83.6825L203.663 90.8237V71.8878Z" fill="#E6E6E6"/>
<circle cx="216.567" cy="53.0718" r="8.35698" fill="#FFB7B7"/>
<path d="M219.091 41.3351C217.67 41.1021 216.256 41.5001 214.843 41.5462C214.147 41.5688 213.449 41.4825 212.757 41.5541C212.065 41.6256 211.349 41.8864 210.939 42.4489C210.653 42.8424 210.521 43.3709 210.112 43.6347C209.793 43.8405 209.373 43.8344 209.052 44.0366C208.434 44.426 208.457 45.3648 207.96 45.9004C207.723 46.155 207.376 46.3091 207.208 46.6135C207.115 46.8138 207.067 47.0315 207.066 47.252L206.825 50.4515C206.757 50.6387 206.79 50.8475 206.913 51.0045C207.035 51.1614 207.23 51.2445 207.427 51.2244C208.005 51.3032 208.708 51.3312 209.044 50.8546C209.441 50.2907 209.14 49.2437 209.794 49.0259C210.374 48.833 210.841 49.6463 211.452 49.6632C211.912 49.6761 212.241 49.2466 212.539 48.8953C212.837 48.5441 213.33 48.2108 213.723 48.4502C214.051 48.6499 214.078 49.121 214.325 49.4149C214.699 49.8589 215.412 49.748 215.941 49.5085C216.469 49.269 217.017 48.9311 217.586 49.0467C218.38 49.2083 218.79 50.1718 219.567 50.403C220.681 50.734 221.878 49.4055 222.921 49.9164C223.41 50.1559 223.643 50.7255 223.726 51.2635C223.809 51.8014 223.786 52.3598 223.957 52.8767C224.127 53.3936 224.574 53.881 225.117 53.8587C225.079 53.4861 225.169 53.1114 225.375 52.798C225.536 52.5535 225.762 52.3551 225.909 52.1013C226.415 51.2235 225.8 50.1179 225.922 49.1121C225.953 48.8585 226.031 48.6108 226.038 48.3554C226.058 47.6674 225.571 47.0815 225.112 46.568L224.574 45.9647C224.096 45.3969 223.569 44.873 222.998 44.3994C222.545 44.0889 222.109 43.755 221.691 43.3992C220.851 42.5902 220.33 41.5381 219.091 41.3351Z" fill="#161616"/>
<defs>
<filter id="filter0_d_1_12994" x="0" y="0" width="292" height="200" filterUnits="userSpaceOnUse" color-interpolation-filters="sRGB">
<feFlood flood-opacity="0" result="BackgroundImageFix"/>
<feColorMatrix in="SourceAlpha" type="matrix" values="0 0 0 0 0 0 0 0 0 0 0 0 0 0 0 0 0 0 127 0" result="hardAlpha"/>
<feOffset/>
<feGaussianBlur stdDeviation="1"/>
<feComposite in2="hardAlpha" operator="out"/>
<feColorMatrix type="matrix" values="0 0 0 0 0.0862745 0 0 0 0 0.0862745 0 0 0 0 0.0862745 0 0 0 0.160784 0"/>
<feBlend mode="normal" in2="BackgroundImageFix" result="effect1_dropShadow_1_12994"/>
<feBlend mode="normal" in="SourceGraphic" in2="effect1_dropShadow_1_12994" result="shape"/>
</filter>
</defs>
</svg>
