<svg width="24" height="24" viewBox="0 0 24 24" fill="none" xmlns="http://www.w3.org/2000/svg">
<path d="M23.7074 22.2953L17.7463 16.3342C21.1202 12.2079 20.6658 6.16092 16.7133 2.58509C12.7608 -0.990734 6.69862 -0.839161 2.92973 2.92973C-0.83916 6.69862 -0.990734 12.7608 2.58509 16.7133C6.16092 20.6658 12.2079 21.1202 16.3342 17.7463L22.2953 23.7074C22.6852 24.0975 23.3175 24.0975 23.7075 23.7075C24.0975 23.3175 24.0974 22.6853 23.7074 22.2953ZM10.0187 18.008C5.60626 18.008 2.02931 14.431 2.02931 10.0187C2.02931 5.60626 5.60626 2.02931 10.0187 2.02931C14.431 2.02931 18.008 5.60626 18.008 10.0187C18.003 14.429 14.429 18.003 10.0187 18.008Z" fill="white"/>
</svg>
