<svg id="Group_182" data-name="Group 182" xmlns="http://www.w3.org/2000/svg" width="28" height="24" viewBox="0 0 28 24">
  <rect id="Rectangle_517" data-name="Rectangle 517" width="27.687" height="24" transform="translate(0.313)" fill="none"/>
  <path id="redo" d="M0,26.249V18.088A10.508,10.508,0,0,1,10.5,7.595h5.634V5.746A2.333,2.333,0,0,1,20.116,4.1l6.859,6.854a3.5,3.5,0,0,1,0,4.946l-6.859,6.854A2.333,2.333,0,0,1,16.133,21.1V19.253h-6.8a7,7,0,0,0-7,7,1.167,1.167,0,0,1-2.333,0ZM18.467,8.761A1.166,1.166,0,0,1,17.3,9.926H10.5a8.173,8.173,0,0,0-8.166,8.161v2a9.316,9.316,0,0,1,7-3.164H17.3a1.166,1.166,0,0,1,1.167,1.166V21.1l6.858-6.854a1.165,1.165,0,0,0,0-1.649L18.467,5.746Z" transform="translate(0 -3.414)" fill="#fff"/>
</svg>
