<svg xmlns="http://www.w3.org/2000/svg" width="192" height="32" viewBox="0 0 192 32">
  <g id="Group_735" data-name="Group 735" transform="translate(-1972 -385)">
    <path id="icon-star" d="M33.863,35.136l-2.621-8.288,6.319-5.374a2.908,2.908,0,0,0,.786-3.1,2.641,2.641,0,0,0-2.5-1.822H27.835L25.011,8.632a2.632,2.632,0,0,0-5.008,0l-2.824,7.924H9.171a2.682,2.682,0,0,0-2.5,1.822,2.807,2.807,0,0,0,.786,3.066L13.8,26.818,11.3,35.2a2.838,2.838,0,0,0,.932,3.066,2.634,2.634,0,0,0,3.086.091l7.221-5.04,7.338,4.979a2.582,2.582,0,0,0,3.086-.121,2.841,2.841,0,0,0,.9-3.066Z" transform="translate(1965.496 378.19)" fill="#febe08"/>
    <path id="icon-star-2" data-name="icon-star" d="M33.863,35.136l-2.621-8.288,6.319-5.374a2.908,2.908,0,0,0,.786-3.1,2.641,2.641,0,0,0-2.5-1.822H27.835L25.011,8.632a2.632,2.632,0,0,0-5.008,0l-2.824,7.924H9.171a2.682,2.682,0,0,0-2.5,1.822,2.807,2.807,0,0,0,.786,3.066L13.8,26.818,11.3,35.2a2.838,2.838,0,0,0,.932,3.066,2.634,2.634,0,0,0,3.086.091l7.221-5.04,7.338,4.979a2.582,2.582,0,0,0,3.086-.121,2.841,2.841,0,0,0,.9-3.066Z" transform="translate(2005.496 378.19)" fill="#febe08"/>
    <path id="icon-star-3" data-name="icon-star" d="M33.863,35.136l-2.621-8.288,6.319-5.374a2.908,2.908,0,0,0,.786-3.1,2.641,2.641,0,0,0-2.5-1.822H27.835L25.011,8.632a2.632,2.632,0,0,0-5.008,0l-2.824,7.924H9.171a2.682,2.682,0,0,0-2.5,1.822,2.807,2.807,0,0,0,.786,3.066L13.8,26.818,11.3,35.2a2.838,2.838,0,0,0,.932,3.066,2.634,2.634,0,0,0,3.086.091l7.221-5.04,7.338,4.979a2.582,2.582,0,0,0,3.086-.121,2.841,2.841,0,0,0,.9-3.066Z" transform="translate(2045.496 378.19)" fill="#febe08"/>
    <g id="icon-star-4" data-name="icon-star" transform="translate(2085.496 378.19)" fill="#febe08">
      <path d="M 13.8296480178833 37.80999755859375 C 13.47498798370361 37.80999755859375 13.115797996521 37.68817901611328 12.84418773651123 37.47577667236328 L 12.84211730957031 37.47415924072266 L 12.84004783630371 37.47255706787109 C 12.26857757568359 37.03045654296875 12.02646732330322 36.21688842773438 12.25127792358398 35.49410629272461 L 12.25293731689453 35.48877716064453 L 12.25453758239746 35.48342895507812 L 14.75865745544434 27.10391807556152 L 14.94597721099854 26.47707748413086 L 14.44665813446045 26.05436706542969 L 8.098998069763184 20.6805477142334 L 8.096218109130859 20.67818832397461 L 8.093418121337891 20.67585754394531 C 7.561457633972168 20.23211860656738 7.363337516784668 19.42151832580566 7.611627578735352 18.70461845397949 C 7.845897674560547 18.02816772460938 8.487057685852051 17.55572891235352 9.170807838439941 17.55572891235352 L 17.17817687988281 17.55572891235352 L 17.88336753845215 17.55572891235352 L 18.1201286315918 16.8914680480957 L 20.94454765319824 8.967368125915527 L 20.94605827331543 8.963137626647949 L 20.94753837585449 8.958888053894043 C 21.18180847167969 8.282438278198242 21.82296752929688 7.809998035430908 22.50671768188477 7.809998035430908 C 23.19047737121582 7.809998035430908 23.83163833618164 8.282438278198242 24.06590843200684 8.958888053894043 L 24.0673885345459 8.963137626647949 L 24.06889724731445 8.967368125915527 L 26.89330673217773 16.8914680480957 L 27.13006782531738 17.55572891235352 L 27.83525848388672 17.55572891235352 L 35.84263610839844 17.55572891235352 C 36.55460739135742 17.55572891235352 37.16555786132812 18.00357818603516 37.39911651611328 18.69668769836426 C 37.64566421508789 19.42838668823242 37.45014572143555 20.22198104858398 36.90117263793945 20.72219848632812 L 30.59417724609375 26.0861988067627 L 30.08839797973633 26.516357421875 L 30.2885570526123 27.14942741394043 L 32.90914916992188 35.43783950805664 L 32.9178581237793 35.43649673461914 C 33.13144683837891 36.16763687133789 32.90352249145508 36.93284225463867 32.33185958862305 37.39431762695312 C 32.04597854614258 37.62508773803711 31.70600700378418 37.74706649780273 31.34868812561035 37.74706649780273 C 31.02926635742188 37.74706649780273 30.71184730529785 37.64894104003906 30.43041610717773 37.46328353881836 L 23.09733772277832 32.48726654052734 L 22.52786827087402 32.10084915161133 L 21.9635181427002 32.49471664428711 L 14.74232769012451 37.5345573425293 C 14.48735809326172 37.71179962158203 14.16268730163574 37.80999755859375 13.8296480178833 37.80999755859375 Z" stroke="none"/>
      <path d="M 13.8296480178833 36.80999755859375 C 13.95866775512695 36.80999755859375 14.08383750915527 36.77442932128906 14.17000770568848 36.71452713012695 L 22.5198974609375 30.88693809509277 L 30.98507499694824 36.63116836547852 C 31.10147285461426 36.7070198059082 31.22706031799316 36.74706649780273 31.34868812561035 36.74706649780273 C 31.47670745849609 36.74706649780273 31.59615707397461 36.70303726196289 31.70373725891113 36.6161994934082 C 31.95362854003906 36.41447448730469 32.05353546142578 36.07323837280273 31.96387481689453 35.73803329467773 L 31.9556770324707 35.73929977416992 L 28.93475723266602 26.18474769592285 L 36.23760604858398 19.97379493713379 C 36.48553085327148 19.74018478393555 36.56959533691406 19.3665599822998 36.45146942138672 19.0160083770752 C 36.35724639892578 18.73639869689941 36.11826705932617 18.55572891235352 35.84263610839844 18.55572891235352 L 26.42487716674805 18.55572891235352 L 23.1209774017334 9.286148071289062 C 23.02542686462402 9.010248184204102 22.76709747314453 8.80999755859375 22.50671768188477 8.80999755859375 C 22.24634742736816 8.80999755859375 21.98801803588867 9.010248184204102 21.8924674987793 9.286148071289062 L 21.88650703430176 9.303117752075195 L 18.58855819702148 18.55572891235352 L 9.170807838439941 18.55572891235352 C 8.91043758392334 18.55572891235352 8.652107238769531 18.75597763061523 8.556557655334473 19.0318775177002 C 8.443197250366211 19.35918807983398 8.517807960510254 19.72762870788574 8.733967781066895 19.90793800354004 L 8.745137214660645 19.91731834411621 L 16.09143829345703 26.13656806945801 L 13.20615768432617 35.79111862182617 C 13.10605812072754 36.11294937133789 13.21171760559082 36.49577713012695 13.45193767547607 36.68160629272461 L 13.46019744873047 36.68803787231445 C 13.55639743804932 36.76326751708984 13.69795799255371 36.80999755859375 13.8296480178833 36.80999755859375 M 13.8296480178833 38.80999755859375 C 13.27640724182129 38.80999755859375 12.69405746459961 38.62783813476562 12.22816753387451 38.26350784301758 C 11.32552814483643 37.56521987915039 10.94699764251709 36.32043838500977 11.29640769958496 35.19709777832031 L 13.80052757263184 26.81758880615234 L 7.45286750793457 21.44376754760742 C 6.579337596893311 20.71511840820312 6.28815746307373 19.47033882141113 6.666687488555908 18.37735748291016 C 7.045217514038086 17.28437805175781 8.064337730407715 16.55572891235352 9.170807838439941 16.55572891235352 L 17.17817687988281 16.55572891235352 L 20.00259780883789 8.631628036499023 C 20.38112831115723 7.538648128509521 21.40024757385254 6.809998035430908 22.50671768188477 6.809998035430908 C 23.61319732666016 6.809998035430908 24.6323184967041 7.538648128509521 25.0108470916748 8.631628036499023 L 27.83525848388672 16.55572891235352 L 35.84263610839844 16.55572891235352 C 36.9491081237793 16.55572891235352 37.96822738647461 17.25401878356934 38.34675598144531 18.37735748291016 C 38.72528839111328 19.50070762634277 38.40499877929688 20.71511840820312 37.56057739257812 21.4741382598877 L 31.24203681945801 26.84795761108398 L 33.86262893676758 35.13636779785156 L 33.86263656616211 35.10601806640625 C 34.2120475769043 36.2293586730957 33.86263656616211 37.44376754760742 32.95997619628906 38.17242813110352 C 32.05733489990234 38.90107727050781 30.83438110351562 38.93143844604492 29.87350845336914 38.29387664794922 L 22.53583717346191 33.31474685668945 L 15.31464767456055 38.35458755493164 C 14.87788772583008 38.65820693969727 14.35376739501953 38.80999755859375 13.8296480178833 38.80999755859375 Z" stroke="none" fill="#febe08"/>
    </g>
    <g id="icon-star-5" data-name="icon-star" transform="translate(2125.496 378.19)" fill="none">
      <path d="M33.863,35.136l-2.621-8.288,6.319-5.374a2.908,2.908,0,0,0,.786-3.1,2.641,2.641,0,0,0-2.5-1.822H27.835L25.011,8.632a2.632,2.632,0,0,0-5.008,0l-2.824,7.924H9.171a2.682,2.682,0,0,0-2.5,1.822,2.807,2.807,0,0,0,.786,3.066L13.8,26.818,11.3,35.2a2.838,2.838,0,0,0,.932,3.066,2.634,2.634,0,0,0,3.086.091l7.221-5.04,7.338,4.979a2.582,2.582,0,0,0,3.086-.121,2.841,2.841,0,0,0,.9-3.066Z" stroke="none"/>
      <path d="M 13.8296480178833 36.80999755859375 C 13.95866775512695 36.80999755859375 14.08383750915527 36.77442932128906 14.17000770568848 36.71452713012695 L 22.5198974609375 30.88693809509277 L 30.98507499694824 36.63116836547852 C 31.10147285461426 36.7070198059082 31.22706031799316 36.74706649780273 31.34868812561035 36.74706649780273 C 31.47670745849609 36.74706649780273 31.59615707397461 36.70303726196289 31.70373725891113 36.6161994934082 C 31.95362854003906 36.41447448730469 32.05353546142578 36.07323837280273 31.96387481689453 35.73803329467773 L 31.9556770324707 35.73929977416992 L 28.93475723266602 26.18474769592285 L 36.23760604858398 19.97379493713379 C 36.48553085327148 19.74018478393555 36.56959533691406 19.3665599822998 36.45146942138672 19.0160083770752 C 36.35724639892578 18.73639869689941 36.11826705932617 18.55572891235352 35.84263610839844 18.55572891235352 L 26.42487716674805 18.55572891235352 L 23.1209774017334 9.286148071289062 C 23.02542686462402 9.010248184204102 22.76709747314453 8.80999755859375 22.50671768188477 8.80999755859375 C 22.24634742736816 8.80999755859375 21.98801803588867 9.010248184204102 21.8924674987793 9.286148071289062 L 21.88650703430176 9.303117752075195 L 18.58855819702148 18.55572891235352 L 9.170807838439941 18.55572891235352 C 8.91043758392334 18.55572891235352 8.652107238769531 18.75597763061523 8.556557655334473 19.0318775177002 C 8.443197250366211 19.35918807983398 8.517807960510254 19.72762870788574 8.733967781066895 19.90793800354004 L 8.745137214660645 19.91731834411621 L 16.09143829345703 26.13656806945801 L 13.20615768432617 35.79111862182617 C 13.10605812072754 36.11294937133789 13.21171760559082 36.49577713012695 13.45193767547607 36.68160629272461 L 13.46019744873047 36.68803787231445 C 13.55639743804932 36.76326751708984 13.69795799255371 36.80999755859375 13.8296480178833 36.80999755859375 M 13.8296480178833 38.80999755859375 C 13.27640724182129 38.80999755859375 12.69405746459961 38.62783813476562 12.22816753387451 38.26350784301758 C 11.32552814483643 37.56521987915039 10.94699764251709 36.32043838500977 11.29640769958496 35.19709777832031 L 13.80052757263184 26.81758880615234 L 7.45286750793457 21.44376754760742 C 6.579337596893311 20.71511840820312 6.28815746307373 19.47033882141113 6.666687488555908 18.37735748291016 C 7.045217514038086 17.28437805175781 8.064337730407715 16.55572891235352 9.170807838439941 16.55572891235352 L 17.17817687988281 16.55572891235352 L 20.00259780883789 8.631628036499023 C 20.38112831115723 7.538648128509521 21.40024757385254 6.809998035430908 22.50671768188477 6.809998035430908 C 23.61319732666016 6.809998035430908 24.6323184967041 7.538648128509521 25.0108470916748 8.631628036499023 L 27.83525848388672 16.55572891235352 L 35.84263610839844 16.55572891235352 C 36.9491081237793 16.55572891235352 37.96822738647461 17.25401878356934 38.34675598144531 18.37735748291016 C 38.72528839111328 19.50070762634277 38.40499877929688 20.71511840820312 37.56057739257812 21.4741382598877 L 31.24203681945801 26.84795761108398 L 33.86262893676758 35.13636779785156 L 33.86263656616211 35.10601806640625 C 34.2120475769043 36.2293586730957 33.86263656616211 37.44376754760742 32.95997619628906 38.17242813110352 C 32.05733489990234 38.90107727050781 30.83438110351562 38.93143844604492 29.87350845336914 38.29387664794922 L 22.53583717346191 33.31474685668945 L 15.31464767456055 38.35458755493164 C 14.87788772583008 38.65820693969727 14.35376739501953 38.80999755859375 13.8296480178833 38.80999755859375 Z" stroke="none" fill="#febe08"/>
    </g>
  </g>
</svg>
