<svg xmlns="http://www.w3.org/2000/svg" width="136" height="24" viewBox="0 0 136 24" >
  <g id="stars" transform="translate(-2261 -282)">
    <path id="icon-star" d="M27.023,28.055l-1.965-6.216,4.739-4.03a2.181,2.181,0,0,0,.59-2.323,1.981,1.981,0,0,0-1.878-1.366H22.5L20.384,8.176a1.974,1.974,0,0,0-3.756,0L14.51,14.119H8.5a2.011,2.011,0,0,0-1.878,1.366,2.105,2.105,0,0,0,.59,2.3l4.761,4.03L10.1,28.1a2.129,2.129,0,0,0,.7,2.3,1.975,1.975,0,0,0,2.315.068l5.416-3.78,5.5,3.734a1.937,1.937,0,0,0,2.315-.091,2.131,2.131,0,0,0,.677-2.3Z" transform="translate(2254.496 275.19)" fill="#febe08"/>
    <path id="icon-star-2" data-name="icon-star" d="M27.023,28.055l-1.965-6.216,4.739-4.03a2.181,2.181,0,0,0,.59-2.323,1.981,1.981,0,0,0-1.878-1.366H22.5L20.384,8.176a1.974,1.974,0,0,0-3.756,0L14.51,14.119H8.5a2.011,2.011,0,0,0-1.878,1.366,2.105,2.105,0,0,0,.59,2.3l4.761,4.03L10.1,28.1a2.129,2.129,0,0,0,.7,2.3,1.975,1.975,0,0,0,2.315.068l5.416-3.78,5.5,3.734a1.937,1.937,0,0,0,2.315-.091,2.131,2.131,0,0,0,.677-2.3Z" transform="translate(2282.496 275.19)" fill="#febe08"/>
    <path id="icon-star-3" data-name="icon-star" d="M27.023,28.055l-1.965-6.216,4.739-4.03a2.181,2.181,0,0,0,.59-2.323,1.981,1.981,0,0,0-1.878-1.366H22.5L20.384,8.176a1.974,1.974,0,0,0-3.756,0L14.51,14.119H8.5a2.011,2.011,0,0,0-1.878,1.366,2.105,2.105,0,0,0,.59,2.3l4.761,4.03L10.1,28.1a2.129,2.129,0,0,0,.7,2.3,1.975,1.975,0,0,0,2.315.068l5.416-3.78,5.5,3.734a1.937,1.937,0,0,0,2.315-.091,2.131,2.131,0,0,0,.677-2.3Z" transform="translate(2310.496 275.19)" fill="#febe08"/>
    <g id="icon-star-4" data-name="icon-star" transform="translate(2338.496 275.19)" fill="#febe08">
      <path d="M 11.99828052520752 29.80999755859375 C 11.78703022003174 29.80999755859375 11.57377052307129 29.73797798156738 11.41318988800049 29.61239814758301 L 11.41112995147705 29.61078834533691 L 11.40906047821045 29.60918807983398 C 11.06128978729248 29.34015655517578 10.91497039794922 28.84181785583496 11.05321979522705 28.3973274230957 L 11.05488014221191 28.39199829101562 L 11.05648040771484 28.38664817810059 L 12.93457984924316 22.10201835632324 L 13.12191009521484 21.47517776489258 L 12.62258052825928 21.05245780944824 L 7.861830234527588 17.02209663391113 L 7.859050273895264 17.01974678039551 L 7.856250286102295 17.01741790771484 C 7.535360336303711 16.74974822998047 7.418060302734375 16.2543773651123 7.571000099182129 15.81276702880859 C 7.712409973144531 15.40446758270264 8.096139907836914 15.11929702758789 8.504159927368164 15.11929702758789 L 14.50967979431152 15.11929702758789 L 15.21487045288086 15.11929702758789 L 15.45163059234619 14.45504760742188 L 17.56995010375977 8.511977195739746 L 17.57146072387695 8.507737159729004 L 17.57292938232422 8.503487586975098 C 17.7143497467041 8.09516716003418 18.09807014465332 7.80999755859375 18.50609016418457 7.80999755859375 C 18.91411018371582 7.80999755859375 19.29783058166504 8.09516716003418 19.43925094604492 8.503487586975098 L 19.44071960449219 8.507737159729004 L 19.44223022460938 8.511967658996582 L 21.56053924560547 14.45503711700439 L 21.79730033874512 15.11929702758789 L 22.50249099731445 15.11929702758789 L 28.50802993774414 15.11929702758789 C 28.93292045593262 15.11929702758789 29.29813957214355 15.38838768005371 29.43848037719727 15.80484771728516 C 29.59122276306152 16.25816535949707 29.47266960144043 16.74810981750488 29.13655090332031 17.05661010742188 L 24.40971946716309 21.07670783996582 L 23.90394020080566 21.50686836242676 L 24.10409927368164 22.13993835449219 L 26.06954002380371 28.35624694824219 L 26.07600021362305 28.35525131225586 C 26.2050895690918 28.80470085144043 26.06615829467773 29.27259254455566 25.71792030334473 29.55369758605957 C 25.54846000671387 29.69049835205078 25.34778022766113 29.76279830932617 25.13755989074707 29.76279830932617 C 24.94761657714844 29.76279830932617 24.75764846801758 29.70381927490234 24.5879020690918 29.59218597412109 L 19.08942985534668 25.8610782623291 L 18.51996040344238 25.47465705871582 L 17.95561027526855 25.86852836608887 L 12.53972053527832 29.64841651916504 C 12.39037036895752 29.75222778320312 12.19752979278564 29.80999755859375 11.99828052520752 29.80999755859375 Z" stroke="none"/>
      <path d="M 12.01214694976807 28.79715728759766 L 18.51198959350586 24.2607479095459 L 25.11400604248047 28.74069595336914 C 25.12300491333008 28.71748733520508 25.12542724609375 28.68802261352539 25.12053489685059 28.65701866149902 L 25.11606979370117 28.65770721435547 L 22.75031089782715 21.17525672912598 L 28.46627807617188 16.31391334533691 C 28.49855422973633 16.27854537963867 28.51882362365723 16.20724868774414 28.49082946777344 16.12417793273926 C 28.4902172088623 16.12235641479492 28.48962593078613 16.12073516845703 28.48906517028809 16.11929702758789 L 21.09210968017578 16.11929702758789 L 18.50609016418457 8.864046096801758 L 15.92006015777588 16.11929702758789 L 8.528219223022461 16.11929702758789 C 8.524317741394043 16.12329864501953 8.519447326660156 16.12987899780273 8.515939712524414 16.14001655578613 C 8.497420310974121 16.19347190856934 8.504726409912109 16.24177169799805 8.511601448059082 16.26195907592773 L 14.26735973358154 21.13466835021973 L 12.00810050964355 28.69433784484863 C 11.99613094329834 28.73282241821289 12.00285911560059 28.77191543579102 12.01214694976807 28.79715728759766 M 11.99828052520752 30.80999755859375 C 11.58335971832275 30.80999755859375 11.14659023284912 30.67337799072266 10.79718017578125 30.40013694763184 C 10.12019062042236 29.87641716003418 9.83629035949707 28.94282722473145 10.09835052490234 28.10031700134277 L 11.97644996643066 21.81568717956543 L 7.215700149536133 17.78532791137695 C 6.560550212860107 17.23883819580078 6.342170238494873 16.30525779724121 6.626060009002686 15.48551750183105 C 6.909960269927979 14.66578769683838 7.674300193786621 14.11929702758789 8.504159927368164 14.11929702758789 L 14.50967979431152 14.11929702758789 L 16.62800025939941 8.176227569580078 C 16.91189956665039 7.356487274169922 17.67624092102051 6.80999755859375 18.50609016418457 6.80999755859375 C 19.33595085144043 6.80999755859375 20.10028076171875 7.356487274169922 20.38418006896973 8.176227569580078 L 22.50249099731445 14.11929702758789 L 28.50802993774414 14.11929702758789 C 29.33788108825684 14.11929702758789 30.10222053527832 14.64301776885986 30.3861198425293 15.48551750183105 C 30.67000961303711 16.32802772521973 30.42980003356934 17.23883819580078 29.79648971557617 17.80809783935547 L 25.05758094787598 21.83846664428711 L 27.02301979064941 28.05477714538574 L 27.02302932739258 28.03200721740723 C 27.28507995605469 28.8745174407959 27.02302932739258 29.78532791137695 26.34604072570801 30.33181762695312 C 25.66904830932617 30.8783073425293 24.75184059143066 30.90107917785645 24.03117942810059 30.42290687561035 L 18.52792930603027 26.68855667114258 L 13.11204051971436 30.46844673156738 C 12.78446006774902 30.69614791870117 12.39136981964111 30.80999755859375 11.99828052520752 30.80999755859375 Z" stroke="none" fill="#febe08"/>
    </g>
    <g id="icon-star-5" data-name="icon-star" transform="translate(2366.496 275.19)" fill="#161616">
      <path d="M 11.99828052520752 29.80999755859375 C 11.78703022003174 29.80999755859375 11.57377052307129 29.73797798156738 11.41318988800049 29.61239814758301 L 11.41112995147705 29.61078834533691 L 11.40906047821045 29.60918807983398 C 11.06128978729248 29.34015655517578 10.91497039794922 28.84181785583496 11.05321979522705 28.3973274230957 L 11.05488014221191 28.39199829101562 L 11.05648040771484 28.38664817810059 L 12.93457984924316 22.10201835632324 L 13.12191009521484 21.47517776489258 L 12.62258052825928 21.05245780944824 L 7.861830234527588 17.02209663391113 L 7.859050273895264 17.01974678039551 L 7.856250286102295 17.01741790771484 C 7.535360336303711 16.74974822998047 7.418060302734375 16.2543773651123 7.571000099182129 15.81276702880859 C 7.712409973144531 15.40446758270264 8.096139907836914 15.11929702758789 8.504159927368164 15.11929702758789 L 14.50967979431152 15.11929702758789 L 15.21487045288086 15.11929702758789 L 15.45163059234619 14.45504760742188 L 17.56995010375977 8.511977195739746 L 17.57146072387695 8.507737159729004 L 17.57292938232422 8.503487586975098 C 17.7143497467041 8.09516716003418 18.09807014465332 7.80999755859375 18.50609016418457 7.80999755859375 C 18.91411018371582 7.80999755859375 19.29783058166504 8.09516716003418 19.43925094604492 8.503487586975098 L 19.44071960449219 8.507737159729004 L 19.44223022460938 8.511967658996582 L 21.56053924560547 14.45503711700439 L 21.79730033874512 15.11929702758789 L 22.50249099731445 15.11929702758789 L 28.50802993774414 15.11929702758789 C 28.93292045593262 15.11929702758789 29.29813957214355 15.38838768005371 29.43848037719727 15.80484771728516 C 29.59122276306152 16.25816535949707 29.47266960144043 16.74810981750488 29.13655090332031 17.05661010742188 L 24.40971946716309 21.07670783996582 L 23.90394020080566 21.50686836242676 L 24.10409927368164 22.13993835449219 L 26.06954002380371 28.35624694824219 L 26.07600021362305 28.35525131225586 C 26.2050895690918 28.80470085144043 26.06615829467773 29.27259254455566 25.71792030334473 29.55369758605957 C 25.54846000671387 29.69049835205078 25.34778022766113 29.76279830932617 25.13755989074707 29.76279830932617 C 24.94761657714844 29.76279830932617 24.75764846801758 29.70381927490234 24.5879020690918 29.59218597412109 L 19.08942985534668 25.8610782623291 L 18.51996040344238 25.47465705871582 L 17.95561027526855 25.86852836608887 L 12.53972053527832 29.64841651916504 C 12.39037036895752 29.75222778320312 12.19752979278564 29.80999755859375 11.99828052520752 29.80999755859375 Z" stroke="none"/>
      <path d="M 12.01214694976807 28.79715728759766 L 18.51198959350586 24.2607479095459 L 25.11400604248047 28.74069595336914 C 25.12300491333008 28.71748733520508 25.12542724609375 28.68802261352539 25.12053489685059 28.65701866149902 L 25.11606979370117 28.65770721435547 L 22.75031089782715 21.17525672912598 L 28.46627807617188 16.31391334533691 C 28.49855422973633 16.27854537963867 28.51882362365723 16.20724868774414 28.49082946777344 16.12417793273926 C 28.4902172088623 16.12235641479492 28.48962593078613 16.12073516845703 28.48906517028809 16.11929702758789 L 21.09210968017578 16.11929702758789 L 18.50609016418457 8.864046096801758 L 15.92006015777588 16.11929702758789 L 8.528219223022461 16.11929702758789 C 8.524317741394043 16.12329864501953 8.519447326660156 16.12987899780273 8.515939712524414 16.14001655578613 C 8.497420310974121 16.19347190856934 8.504726409912109 16.24177169799805 8.511601448059082 16.26195907592773 L 14.26735973358154 21.13466835021973 L 12.00810050964355 28.69433784484863 C 11.99613094329834 28.73282241821289 12.00285911560059 28.77191543579102 12.01214694976807 28.79715728759766 M 11.99828052520752 30.80999755859375 C 11.58335971832275 30.80999755859375 11.14659023284912 30.67337799072266 10.79718017578125 30.40013694763184 C 10.12019062042236 29.87641716003418 9.83629035949707 28.94282722473145 10.09835052490234 28.10031700134277 L 11.97644996643066 21.81568717956543 L 7.215700149536133 17.78532791137695 C 6.560550212860107 17.23883819580078 6.342170238494873 16.30525779724121 6.626060009002686 15.48551750183105 C 6.909960269927979 14.66578769683838 7.674300193786621 14.11929702758789 8.504159927368164 14.11929702758789 L 14.50967979431152 14.11929702758789 L 16.62800025939941 8.176227569580078 C 16.91189956665039 7.356487274169922 17.67624092102051 6.80999755859375 18.50609016418457 6.80999755859375 C 19.33595085144043 6.80999755859375 20.10028076171875 7.356487274169922 20.38418006896973 8.176227569580078 L 22.50249099731445 14.11929702758789 L 28.50802993774414 14.11929702758789 C 29.33788108825684 14.11929702758789 30.10222053527832 14.64301776885986 30.3861198425293 15.48551750183105 C 30.67000961303711 16.32802772521973 30.42980003356934 17.23883819580078 29.79648971557617 17.80809783935547 L 25.05758094787598 21.83846664428711 L 27.02301979064941 28.05477714538574 L 27.02302932739258 28.03200721740723 C 27.28507995605469 28.8745174407959 27.02302932739258 29.78532791137695 26.34604072570801 30.33181762695312 C 25.66904830932617 30.8783073425293 24.75184059143066 30.90107917785645 24.03117942810059 30.42290687561035 L 18.52792930603027 26.68855667114258 L 13.11204051971436 30.46844673156738 C 12.78446006774902 30.69614791870117 12.39136981964111 30.80999755859375 11.99828052520752 30.80999755859375 Z" stroke="none" fill="#febe08"/>
    </g>
  </g>
</svg>
