<svg width="48" height="48" viewBox="0 0 48 48" fill="none" xmlns="http://www.w3.org/2000/svg">
<path d="M47.4142 30.5798C46.6329 29.7988 45.3664 29.7988 44.5852 30.5798L38.9973 36.1678L33.4093 30.5798C32.6282 29.7983 31.3614 29.7983 30.5801 30.5796C29.7988 31.3609 29.7988 32.6277 30.5801 33.409L36.1683 38.9967L30.5803 44.5847C29.7988 45.3658 29.7988 46.6325 30.5801 47.4139C31.3614 48.1952 32.6282 48.1952 33.4095 47.4139L38.9973 41.8257L44.5852 47.4136C45.3663 48.1952 46.6331 48.1952 47.4144 47.4139C48.1957 46.6325 48.1957 45.3658 47.4144 44.5845L41.8262 38.9967L47.4142 33.4088C48.1952 32.6275 48.1952 31.3611 47.4142 30.5798Z" fill="#707070"/>
<path d="M24 44C12.9543 44 4 35.0457 4 24C4 12.9543 12.9543 4 24 4C35.0457 4 44 12.9543 44 24C44 25.1046 44.8954 26 46 26C47.1046 26 48 25.1046 48 24C48 10.7452 37.2548 0 24 0C10.7452 0 0 10.7452 0 24C0 37.2548 10.7452 48 24 48C25.1046 48 26 47.1046 26 46C26 44.8954 25.1046 44 24 44Z" fill="#707070"/>
<path d="M24.0018 11.9971C22.8968 11.9971 22.0011 12.8928 22.0011 13.9978V23.1729L16.5852 28.5888C15.8037 29.3699 15.8037 30.6367 16.585 31.418C17.3663 32.1993 18.6331 32.1993 19.4144 31.418L25.4163 25.4157C25.7915 25.0406 26.0023 24.5318 26.0025 24.0012L26.0025 13.9978C26.0025 12.8928 25.1067 11.9971 24.0018 11.9971Z" fill="#707070"/>
</svg>
