<svg width="48" height="48" viewBox="0 0 48 48" fill="none" xmlns="http://www.w3.org/2000/svg">
<path d="M37.8966 45.9979H37.8305C36.8079 45.9819 35.8353 45.5476 35.1409 44.7972L31.3026 41.0329C30.5341 40.2384 30.5522 38.9717 31.3466 38.2032C31.3486 38.2012 31.3506 38.1992 31.3526 38.1972C32.1471 37.4348 33.4079 37.4568 34.1743 38.2452L37.8986 41.8934L44.5846 35.2074C45.365 34.427 46.6338 34.427 47.4143 35.2074C48.1947 35.9879 48.1947 37.2567 47.4143 38.0371L40.5682 44.8832C39.8637 45.5977 38.9012 45.9999 37.8966 45.9979Z" fill="#FEBE08"/>
<path d="M28.071 40.0291C28.063 33.4351 33.401 28.0831 39.993 28.0731C42.559 28.0691 45.059 28.8931 47.119 30.4231C50.665 17.6531 43.187 4.42709 30.419 0.881092C17.651 -2.66491 4.42695 4.8111 0.88095 17.5811C-2.66505 30.3511 4.81295 43.5791 17.581 47.1251C21.781 48.2911 26.219 48.2911 30.419 47.1251C28.895 45.0731 28.071 42.5851 28.071 40.0291ZM26.001 24.0431C26.001 24.5751 25.789 25.0831 25.413 25.4591L19.403 31.4711C18.607 32.2391 17.339 32.2171 16.571 31.4211C15.821 30.6451 15.821 29.4131 16.571 28.6371L21.995 23.2131V14.0251C21.995 12.9191 22.891 12.0211 23.999 12.0211C25.105 12.0211 26.001 12.9191 26.001 14.0251V24.0431Z" fill="#FEBE08"/>
</svg>
