<svg width="52" height="48" viewBox="0 0 52 48" fill="none" xmlns="http://www.w3.org/2000/svg">
<path d="M24 44C12.9543 44 4 35.0457 4 24C4 12.9543 12.9543 4 24 4C35.0457 4 44 12.9543 44 24C44 25.1046 44.8954 26 46 26C47.1046 26 48 25.1046 48 24C48 10.7452 37.2548 0 24 0C10.7452 0 0 10.7452 0 24C0 37.2548 10.7452 48 24 48C25.1046 48 26 47.1046 26 46C26 44.8954 25.1046 44 24 44Z" fill="#FEBE08"/>
<path d="M24.0039 11.9907C22.8981 11.9907 22.0017 12.8871 22.0017 13.9929V23.175L16.5817 28.5949C15.7996 29.3766 15.7996 30.6444 16.5815 31.4263C17.3634 32.2082 18.6311 32.2082 19.4131 31.4263L25.4194 25.4195C25.7949 25.0441 26.006 24.5349 26.0061 24.0039L26.0061 13.9929C26.0061 12.8871 25.1097 11.9907 24.0039 11.9907Z" fill="#FEBE08"/>
<circle cx="30.2793" cy="44.7976" r="1.5022" transform="rotate(-15 30.2793 44.7976)" fill="#FEBE08" stroke="#FEBE08"/>
<circle cx="36.2673" cy="42.3139" r="1.5022" transform="rotate(-30 36.2673 42.3139)" fill="#FEBE08" stroke="#FEBE08"/>
<circle cx="41.5493" cy="38.7178" r="1.5022" transform="rotate(-45 41.5493 38.7178)" fill="#FEBE08" stroke="#FEBE08"/>
<circle cx="45.7819" cy="34.2652" r="1.5022" transform="rotate(-60 45.7819 34.2652)" fill="#FEBE08" stroke="#FEBE08"/>
<circle cx="48.6651" cy="29.2429" r="1.5022" transform="rotate(-75 48.6651 29.2429)" fill="#FEBE08" stroke="#FEBE08"/>
</svg>
