<svg width="24" height="24" viewBox="0 0 24 24" fill="none" xmlns="http://www.w3.org/2000/svg">
<path d="M11.9999 0C5.37195 0 0 5.37195 0 12.0001C0 18.6278 5.37195 24 11.9999 24C18.628 24 24.0002 18.6278 24.0002 12.0001C24.0002 5.37195 18.628 0 11.9999 0ZM12.9057 22.1463V21.3396C12.9057 20.8389 12.5006 20.434 11.9999 20.434C11.4994 20.434 11.0945 20.8389 11.0945 21.3396V22.1463C6.18872 21.7118 2.27277 17.7871 1.85175 12.8775H2.63212C3.13259 12.8775 3.53776 12.4723 3.53776 11.9716C3.53776 11.4709 3.13259 11.066 2.63212 11.066H1.85582C2.30211 6.18272 6.20756 2.28669 11.0945 1.85368V2.60385C11.0945 3.10432 11.4994 3.50949 11.9999 3.50949C12.5006 3.50949 12.9057 3.10432 12.9057 2.60385V1.85368C17.7926 2.28669 21.6981 6.18272 22.1442 11.066H21.3681C20.8674 11.066 20.4622 11.4709 20.4622 11.9716C20.4622 12.4723 20.8674 12.8775 21.3681 12.8775H22.1485C21.7274 17.7871 17.8115 21.7118 12.9057 22.1463Z" fill="#FEBE08"/>
<path d="M17.3951 6.15379L12.0303 11.775C12.0204 11.7748 12.0101 11.7735 11.9999 11.7735C11.9328 11.7735 11.8675 11.7804 11.8037 11.7928L7.31404 8.40022C7.0168 8.17729 6.59086 8.23404 6.36429 8.53471C6.13793 8.83195 6.19639 9.25982 6.49706 9.48639L10.9854 12.8777C11.0287 13.4 11.466 13.8114 11.9999 13.8114C12.5624 13.8114 13.0186 13.3548 13.0186 12.7924C13.0186 12.7655 13.0171 12.7393 13.0147 12.7128L18.3783 7.09134C18.6368 6.81872 18.6278 6.39064 18.3554 6.13087C18.0849 5.8709 17.6549 5.8831 17.3951 6.15379Z" fill="#FEBE08"/>
</svg>
