<svg width="32" height="32" viewBox="0 0 32 32" fill="none" xmlns="http://www.w3.org/2000/svg">
<path d="M11.7895 14.4833L10.4 17.6033L7.36842 19.0333L10.4 20.4633L11.7895 23.5833L13.1789 20.4633L16.2105 19.0333L13.1789 17.6033L11.7895 14.4833ZM21.8947 14.1367L20.8842 16.26L18.8211 17.3L20.8842 18.34L21.8947 20.4633L22.9053 18.34L24.9684 17.3L22.9053 16.26L21.8947 14.1367ZM3.03158 3L5.97895 9.06666H11.0316L8.08421 3H11.4526L14.4 9.06666H19.4526L16.5053 3H19.8737L22.8211 9.06666H27.8737L24.9263 3H28.9684C29.8105 3 30.5263 3.30333 31.1158 3.91C31.7053 4.51667 32 5.25333 32 6.12V25.88C32 26.7467 31.7053 27.4833 31.1158 28.09C30.5263 28.6967 29.8105 29 28.9684 29H3.03158C2.18948 29 1.47368 28.6967 0.884211 28.09C0.294737 27.4833 0 26.7467 0 25.88V6.12C0 5.25333 0.294737 4.51667 0.884211 3.91C1.47368 3.30333 2.18947 3 3.03158 3ZM2.52632 11.6667V25.88C2.52632 26.0244 2.57572 26.1475 2.67453 26.2492C2.77221 26.3497 2.89123 26.4 3.03158 26.4H28.9684C29.1088 26.4 29.2283 26.3497 29.3272 26.2492C29.4248 26.1475 29.4737 26.0244 29.4737 25.88V11.6667H2.52632ZM2.52632 11.6667V26.4V25.88V11.6667Z" fill="black"/>
</svg>
